<?xml version="1.0" encoding="UTF-8"?>
<svg width="72px" height="72px" viewBox="0 0 72 72" version="1.1" xmlns="http://www.w3.org/2000/svg" xmlns:xlink="http://www.w3.org/1999/xlink">
    <!-- Generator: Sketch 59 (86127) - https://sketch.com -->
    <title>cat_13</title>
    <desc>Created with Sketch.</desc>
    <defs>
        <circle id="path-1" cx="36" cy="36" r="36"></circle>
        <linearGradient x1="50%" y1="0%" x2="50%" y2="100%" id="linearGradient-2">
            <stop stop-color="#CE5D99" offset="0%"></stop>
            <stop stop-color="#C15790" offset="52.0073158%"></stop>
            <stop stop-color="#B04D82" offset="100%"></stop>
        </linearGradient>
    </defs>
    <g id="Support" stroke="none" stroke-width="1" fill="none" fill-rule="evenodd">
        <g id="Support-cat-icons" transform="translate(-545.000000, -1614.000000)" fill-rule="nonzero">
            <g id="Group-10" transform="translate(134.000000, 592.000000)">
                <g id="cat_13" transform="translate(411.000000, 1022.000000)">
                    <g id="Molecules-/-Cards-/-Feature-Grid-Block">
                        <g id="Atoms-/-Icons-/-Backgrounds-/-Colours">
                            <use fill="#FFFFFF" xlink:href="#path-1"></use>
                            <use fill-opacity="0.0965806159" fill="#C15790" xlink:href="#path-1"></use>
                        </g>
                        <g id="headphones-customer-support-human-1" transform="translate(21.000000, 20.000000)">
                            <path d="M15.9869726,16 L15.9869725,16 C14.8824256,16.0072015 13.9928439,16.9084545 14.0000434,18.0130077 C14.0072372,19.1175657 14.9084812,20.0071562 16.0130235,19.9999566 C17.1124704,19.9927959 18,19.0995015 18,18.0000177 L18,18.0000218 C17.9928413,16.8933372 17.0936747,16 15.9869726,16 L15.9869726,16 Z" id="Path" fill="#C15790"></path>
                            <path d="M21.3020087,2.90399964 L21.3020087,2.90399965 C21.1165786,2.83512578 20.9708306,2.69282899 20.9018646,2.51333301 L20.9018646,2.51333316 C20.3194347,1.00335993 18.8237179,0.00111999992 17.1510322,0 L14.6892455,0 L14.6892454,0 C12.9472475,0.00068519065 11.4055709,1.08584259 10.8761068,2.68399982 L10.8761068,2.68399978 C10.8142182,2.8717771 10.669253,3.02357842 10.4801164,3.09866641 L10.480117,3.09866618 C6.18553157,4.58999942 3.23364443,8.41026582 2.98399046,12.7999989 L2.98399041,12.8000002 C2.96883491,13.1861015 2.867293,13.5645001 2.68630529,13.9093334 C2.48277175,14.2946667 2.20585536,14.76 1.97739935,15.1466667 C1.00819199,16.7933332 -0.0994735494,18.6573331 0.00713925921,20.1466663 L0.00713925921,20.329333 L0.00713922467,20.3293335 C-0.0178450024,20.6775828 0.0738807813,21.0243628 0.268825209,21.3186668 L0.268825241,21.3186668 C0.578889903,21.7365081 1.07206691,21.9929161 1.6049468,22.0133334 C1.84447948,22.0226667 2.10893463,22.0266667 2.36785145,22.0266667 L2.36785142,22.0266667 C2.75019264,22.0266667 3.06014238,22.3251441 3.06014238,22.6933334 L3.06014238,25.3333332 L3.06014238,25.3333337 C3.06014267,27.1742802 4.60989109,28.6666668 6.52159721,28.6666668 L8.5984701,28.6666668 L8.59847007,28.6666668 C8.9808113,28.6666668 9.29076104,28.9651441 9.29076104,29.3333334 L9.29076104,31.3333333 L9.29076104,31.3333334 C9.2907611,31.7015227 9.60071078,32 9.983052,32 L23.8288713,32 L23.8288713,32 C24.2112125,32 24.5211622,31.7015227 24.5211622,31.3333334 L24.5211622,26.3893337 L24.5211622,26.3893327 C24.5208157,26.167582 24.6349902,25.9601794 24.8257716,25.8359994 C28.2996877,23.5826662 30.0594913,20.0839998 30.0594913,15.4173334 L30.0594912,15.4173408 C30.1321947,9.89672783 26.6430076,4.91111484 21.3020105,2.90400831 L21.3020087,2.90399964 Z M16.1815322,23.0969685 L16.1815322,23.0969685 C15.8927455,23.1197083 15.6183514,23.2274485 15.3959188,23.4054373 L15.3959191,23.4054371 C13.8394209,24.6927463 12.0208173,25.6560204 10.0554347,26.2341907 L10.0554347,26.2341907 C9.90671344,26.2740316 9.7758266,26.3597174 9.68300617,26.4780023 L9.68300618,26.4780023 C9.35138458,26.9021563 8.83061426,27.1515152 8.27761553,27.1515152 L7.57492021,27.1515152 L7.57492013,27.1515152 C6.60470026,27.1515152 5.81818182,26.3976603 5.81818182,25.4677331 C5.81818182,24.537806 6.60470026,23.7839512 7.57492013,23.7839512 L8.27761545,23.7839512 L8.27761546,23.7839512 C8.63215336,23.7833677 8.97838821,23.886779 9.26982126,24.0802969 L9.26982131,24.0802969 C9.45112654,24.2001051 9.68054532,24.231518 9.88959859,24.1651595 L9.88959824,24.1651596 C10.8812855,23.8407164 11.823992,23.392332 12.6933526,22.8316057 L12.6933526,22.8316057 C12.8559619,22.7301191 12.9019463,22.5215016 12.7960619,22.3656453 C12.7693534,22.3263319 12.7343695,22.2928008 12.6933526,22.2672015 L12.6933523,22.2672013 C10.1039622,20.7077499 9.32380174,17.4316222 10.9508225,14.9497546 C11.4320339,14.2157146 12.0935245,13.605834 12.8774585,13.1734321 L12.8774585,13.1734321 C13.0923792,13.0525867 13.2244565,12.831689 13.22459,12.5928641 L13.22459,4.09852125 L13.22459,4.09851877 C13.2268876,3.44410684 13.7785809,2.91352427 14.4613352,2.90909091 L16.9601197,2.90909091 L16.9601197,2.90909091 C17.6472658,2.90686116 18.2064131,3.43856787 18.209512,4.09717444 L18.209512,12.5969054 L18.209512,12.5968966 C18.2099339,12.8359977 18.3425821,13.0569597 18.5580404,13.1774687 L18.5580407,13.1774689 C21.2136669,14.6489191 22.1219568,17.9051782 20.5867502,20.4505176 C19.6660156,21.9770746 18.016361,22.9676098 16.1815252,23.0956177 L16.1815322,23.0969685 Z" id="Shape" fill="url(#linearGradient-2)"></path>
                        </g>
                    </g>
                </g>
            </g>
        </g>
    </g>
</svg>