<?xml version="1.0" encoding="UTF-8"?>
<svg width="72px" height="72px" viewBox="0 0 72 72" version="1.1" xmlns="http://www.w3.org/2000/svg" xmlns:xlink="http://www.w3.org/1999/xlink">
    <!-- Generator: Sketch 59 (86127) - https://sketch.com -->
    <title>cat_09</title>
    <desc>Created with Sketch.</desc>
    <defs>
        <circle id="path-1" cx="36" cy="36" r="36"></circle>
        <linearGradient x1="32.8061297%" y1="0%" x2="77.9653696%" y2="93.736854%" id="linearGradient-2">
            <stop stop-color="#735FC7" offset="0%"></stop>
            <stop stop-color="#6854BA" offset="50.1061236%"></stop>
            <stop stop-color="#5845A6" offset="100%"></stop>
        </linearGradient>
        <path d="M15.6666667,18 C19.5393519,18 22.6666667,21.1273148 22.6666667,25 C22.6666667,28.8726852 19.5393519,32 15.6666667,32 C11.7939815,32 8.66666667,28.8726852 8.66666667,25 C8.66666667,21.1273148 11.7939815,18 15.6666667,18 Z M16.5833333,29.7119342 C17.9243827,29.4979424 19.3333333,28.7901235 19.3333333,27.1111111 C19.3333333,23.2592593 13.8333333,25.3333333 13.8333333,23.5555556 C13.8333333,22.962963 14.75,22.6666667 15.6666667,22.6666667 C16.5833333,22.6666667 17.5,22.962963 18.1111111,23.2592593 L19.0277778,21.7777778 C19.0277778,21.7777778 18.1450617,21.1358025 16.5833333,20.9382716 L16.5833333,20 L14.75,20 L14.75,20.9547325 C13.4089506,21.1687243 12,21.8765432 12,23.5555556 C12,27.4074074 17.5,25.3333333 17.5,27.1111111 C17.5,27.7037037 16.5833333,28 15.6666667,28 C14.75,28 13.8333333,27.7037037 13.2222222,27.4074074 L12.3055556,28.8888889 C12.3055556,28.8888889 13.1882716,29.5308642 14.75,29.7283951 L14.75,30.6666667 L16.5833333,30.6666667 L16.5833333,29.7119342 Z" id="path-3"></path>
        <linearGradient x1="36.8581325%" y1="0%" x2="88.2167228%" y2="100%" id="linearGradient-4">
            <stop stop-color="#735FC7" offset="0%"></stop>
            <stop stop-color="#6854BA" offset="50.1061236%"></stop>
            <stop stop-color="#5845A6" offset="100%"></stop>
        </linearGradient>
        <path d="M10.7905572,6.6716637 C11.3637436,4.90757737 14.4244618,6.29213015 14.8830109,4.88086108 C14.8830109,4.88086108 14.1684709,3.47849745 14.7989759,1.53800249 C15.1779158,0.371745413 16.4374461,-0.270017329 17.6037032,0.108922565 C18.7699603,0.487862459 19.411723,1.74739276 19.0327831,2.91364983 C18.4022781,4.8541448 16.9999145,5.56868476 16.9999145,5.56868476 C16.5413654,6.97995382 19.831358,7.65887206 19.2581716,9.42295839 L19.1435344,9.77577566 C19.1116907,9.87378046 19.0078119,9.92670934 18.9098071,9.89486565 L10.79501,7.25820824 C10.6970052,7.22636455 10.6440763,7.12248576 10.67592,7.02448097 L10.7905572,6.6716637 Z" id="path-5"></path>
        <linearGradient x1="36.0494271%" y1="0%" x2="90.5684488%" y2="100%" id="linearGradient-6">
            <stop stop-color="#735FC7" offset="0%"></stop>
            <stop stop-color="#6854BA" offset="50.1061236%"></stop>
            <stop stop-color="#5845A6" offset="100%"></stop>
        </linearGradient>
        <path d="M22.0475085,19.4294717 C21.5361884,17.3786789 25.3298793,16.8684614 24.9208233,15.2278272 C23.6903476,15.5346193 22.8705818,14.8676982 22.8705818,14.8676982 C22.8705818,14.8676982 23.3835556,14.3041436 22.8211036,12.0482717 C22.4830642,10.6924698 23.3126689,9.31177573 24.6684707,8.97373636 C26.0242726,8.635697 27.4049667,9.46530171 27.743006,10.8211036 C28.3054581,13.0769755 29.0229599,13.3337381 29.0229599,13.3337381 C29.0229599,13.3337381 28.6122501,14.3074511 27.3817745,14.6142432 C27.7908305,16.2548773 31.3799934,14.9243427 31.8913135,16.9751354 L31.9935775,17.385294 C32.0219841,17.4992269 31.9535631,17.6130986 31.8396302,17.6415052 L22.4059838,19.9935775 C22.2920508,20.0219841 22.1781791,19.9535631 22.1497725,19.8396302 L22.0475085,19.4294717 Z" id="path-7"></path>
        <linearGradient x1="0%" y1="18.6558072%" x2="57.5801965%" y2="75.0794355%" id="linearGradient-8">
            <stop stop-color="#735FC7" offset="0%"></stop>
            <stop stop-color="#6854BA" offset="50.1061236%"></stop>
            <stop stop-color="#5845A6" offset="100%"></stop>
        </linearGradient>
        <path d="M1.29731835,10 L6.74586125,10 L6.74586125,10 L12.1778012,10 C12.7300859,10 13.1778012,10.4477153 13.1778012,11 C13.1778012,11.2136987 13.1093434,11.4217774 12.9824635,11.5937327 L8.59846219,17.5351957 C8.47158228,17.707151 8.40312453,17.9152297 8.40312453,18.1289284 L8.40312453,19.1289246 C8.40312453,19.5738361 8.10918565,19.9652403 7.68191392,20.0892769 L6.09943432,20.5486693 C5.5690464,20.7026404 5.01426379,20.3974943 4.86029266,19.8671064 C4.83399315,19.7765119 4.82064493,19.6826517 4.82064493,19.588317 L4.82064493,18.1142044 C4.82064493,17.9096202 4.75789611,17.7099583 4.64086375,17.5421545 L0.477099531,11.5720499 C0.161165092,11.1190556 0.272274099,10.4957156 0.725268443,10.1797812 C0.893072243,10.0627488 1.09273416,10 1.29731835,10 Z" id="path-9"></path>
    </defs>
    <g id="Support" stroke="none" stroke-width="1" fill="none" fill-rule="evenodd">
        <g id="Support-cat-icons" transform="translate(-305.000000, -1296.000000)">
            <g id="Group-10" transform="translate(134.000000, 592.000000)">
                <g id="cat_09" transform="translate(171.000000, 704.000000)">
                    <g id="Molecules-/-Cards-/-Feature-Grid-Block">
                        <g id="Atoms-/-Icons-/-Backgrounds-/-Colours" fill-rule="nonzero">
                            <use fill="#FFFFFF" xlink:href="#path-1"></use>
                            <use fill-opacity="0.1" fill="#6854BA" xlink:href="#path-1"></use>
                        </g>
                        <g id="Atoms-/-Icons-/-Features-Demos-/-ALG" transform="translate(20.000000, 20.000000)">
                            <g id="Atoms-/-Icons-/-Agency-Lead-Generator">
                                <g>
                                    <g id="💲-copy-10">
                                        <use fill="#FFFFFF" xlink:href="#path-3"></use>
                                        <use fill="url(#linearGradient-2)" xlink:href="#path-3"></use>
                                    </g>
                                    <g id="👤-copy">
                                        <use fill="#FFFFFF" xlink:href="#path-5"></use>
                                        <use fill-opacity="0.7" fill="url(#linearGradient-4)" xlink:href="#path-5"></use>
                                    </g>
                                    <g id="👧">
                                        <use fill="#FFFFFF" xlink:href="#path-7"></use>
                                        <use fill-opacity="0.8" fill="url(#linearGradient-6)" xlink:href="#path-7"></use>
                                    </g>
                                    <g id="Rectangle-4">
                                        <use fill="#FFFFFF" xlink:href="#path-9"></use>
                                        <use fill-opacity="0.9" fill="url(#linearGradient-8)" xlink:href="#path-9"></use>
                                    </g>
                                </g>
                            </g>
                        </g>
                    </g>
                </g>
            </g>
        </g>
    </g>
</svg>