<?xml version="1.0" encoding="UTF-8"?>
<svg width="72px" height="72px" viewBox="0 0 72 72" version="1.1" xmlns="http://www.w3.org/2000/svg" xmlns:xlink="http://www.w3.org/1999/xlink">
    <!-- Generator: Sketch 59 (86127) - https://sketch.com -->
    <title>cat_01</title>
    <desc>Created with Sketch.</desc>
    <defs>
        <circle id="path-1" cx="36" cy="36" r="36"></circle>
        <path d="M21,24.5 L21,24.5 C19.8954305,24.5 19,25.3206066 19,26.3328748 C19,26.3328748 19,26.3328748 19,26.3328748 L19,26.3328765 C19.2913257,27.5006617 19.7651016,28.6237858 20.4066667,29.6674854 L20.4066667,29.6674853 C20.5745467,29.967792 20.9762852,30.086517 21.3039732,29.9326656 C21.4283759,29.8742579 21.5295998,29.7814925 21.5933331,29.6674853 L21.5933337,29.6674844 C22.2346455,28.6236748 22.7084067,27.5005873 23,26.3328755 L23,26.3328741 C23,25.3206058 22.1045695,24.5 21,24.5 C21,24.5 21,24.5 21,24.5 L21,24.5 Z" id="path-2"></path>
        <path d="M15.7407358,14.4998751 L15.7407358,14.4998751 C16.4362058,14.4998752 17,13.9402269 17,13.2498651 C17,12.5595033 16.4362058,11.999855 15.7407358,11.999855 L15.7407357,11.999855 C14.6975313,11.999855 13.8518468,11.160382 13.8518468,10.1248399 C13.8518469,9.08929785 14.6975313,8.24982484 15.7407357,8.24982484 L15.7407357,8.24982484 C16.4362057,8.24982487 17,7.69017659 17,6.99981478 C17,6.30945297 16.4362057,5.74980472 15.7407357,5.74980472 L15.7407356,5.74980472 C13.9194438,5.75265052 12.286726,6.86507369 11.6292542,8.55107726 L11.6292542,8.55107727 C11.5820392,8.67100298 11.465558,8.74990637 11.3358467,8.74982887 L9.12962453,8.74982887 L9.12962451,8.74982887 C8.95575733,8.74982886 8.8148097,8.60991649 8.8148097,8.43732635 C8.8148097,8.43732635 8.8148097,8.43732635 8.8148097,8.43732635 L8.8148097,4.49979466 L8.81480972,4.4998633 C8.81464753,4.03353455 8.55300091,3.60606736 8.13613069,3.39106688 L1.83983439,0.141040721 L1.83983444,0.141040748 C1.22269163,-0.177249313 0.462469259,0.0613429819 0.141824074,0.673952537 C0.0487230074,0.851826469 0,1.04931806 0,1.24976842 L0,28.7499898 L0,28.7499899 C0,29.4403517 0.563789259,30 1.25925926,30 L7.55555556,30 L7.5555555,30 C8.2510255,30 8.81481476,29.4403517 8.81481476,28.7499899 L8.81481476,11.5623516 L8.81481476,11.5623517 C8.81481473,11.3897615 8.95576239,11.2498491 9.12962957,11.2498491 L11.2451851,11.2498491 L11.2451851,11.2498491 C11.3822366,11.2495413 11.5036091,11.3376241 11.5448888,11.4673509 L11.5448887,11.4673506 C12.1344236,13.2734401 13.8281524,14.497575 15.7407406,14.499875 L15.7407358,14.4998751 Z M2.51851363,14.3998743 L2.51851363,14.3998743 C2.51851363,14.2272842 2.65946126,14.0873718 2.83332844,14.0873718 C2.90144505,14.0873718 2.96772415,14.1093026 3.02221733,14.1498723 L5.14280992,15.8123857 L5.14280993,15.8123857 C5.27912223,15.919523 5.30213015,16.1160656 5.19420005,16.2513767 C5.17911135,16.2702932 5.16186643,16.2874115 5.14280993,16.3023894 L3.02221734,17.9649027 L3.02221736,17.9649027 C2.88312336,18.0684569 2.68579743,18.0404746 2.58147661,17.9024022 C2.54060673,17.8483093 2.51851363,17.782517 2.51851363,17.7149007 L2.51851363,14.3998743 Z M5.7925877,18.5949081 L5.79258768,18.5949081 C5.93042997,18.488588 6.12899879,18.5133205 6.23610634,18.6501497 C6.27967835,18.705813 6.3030973,18.7744198 6.3025878,18.84491 L6.3025878,22.7024411 L6.3025878,22.702441 C6.30732329,22.8742762 6.17083151,23.0173873 5.99772365,23.0220886 C5.92274811,23.0241246 5.84952143,22.999415 5.79132854,22.9524432 L3.33703225,20.9999275 L3.33703224,20.9999274 C3.2010675,20.8934667 3.17778883,20.6977525 3.28503755,20.5627864 C3.30026993,20.5436174 3.3177215,20.5262941 3.33703224,20.5111736 L5.7925877,18.5949081 Z M3.33703215,11.6148519 L3.33703211,11.6148519 C3.20071981,11.5066059 3.17861729,11.3091644 3.28766423,11.1738533 C3.30224671,11.1557587 3.3188037,11.1393233 3.33703223,11.1248481 L5.78503223,9.18358245 L5.78503226,9.18358243 C5.92089626,9.07588581 6.11898781,9.09791124 6.22748055,9.23277745 C6.27193177,9.2880339 6.29618989,9.35662195 6.29629126,9.42733402 L6.29629126,13.2861151 L6.29629128,13.2861159 C6.29898455,13.458686 6.16023713,13.6007484 5.98639135,13.6034597 C5.91387225,13.6045374 5.84318965,13.5807628 5.78629128,13.536117 L3.33703215,11.6148519 Z M6.1262914,5.17355008 L6.12629145,5.1735501 C6.23073441,5.22726104 6.29630152,5.33429015 6.29629145,5.45105234 L6.29629145,5.82605535 L6.29629146,5.82605599 C6.29809461,5.92311702 6.2543541,6.01549751 6.17792059,6.076058 L3.02977244,8.57607812 L3.02977244,8.57607812 C2.89393236,8.68380474 2.69583703,8.66182318 2.58731281,8.5269811 C2.54147577,8.47002802 2.5171387,8.39896007 2.51851305,8.32607573 L2.51851305,3.8247895 L2.51851305,3.82476421 C2.51851302,3.65217407 2.65946068,3.5122617 2.83332787,3.5122617 C2.88373664,3.5122617 2.93340838,3.52427764 2.97816535,3.54729898 L6.1262914,5.17355008 Z M2.83332844,27.4999804 L2.83332843,27.4999804 C2.65946124,27.4999804 2.51851361,27.3600674 2.51851361,27.1874773 C2.51851361,27.1874773 2.51851361,27.1874773 2.51851361,27.1874773 L2.51851361,23.8037 L2.51851362,23.8037005 C2.51525933,23.6311404 2.65354399,23.4886342 2.82738096,23.4854042 C2.90080421,23.4840398 2.97239851,23.508198 3.02977288,23.5536984 L6.17792103,26.0537185 L6.17792103,26.0537185 C6.25435441,26.1142783 6.29809478,26.2066597 6.2962914,26.3037205 L6.2962914,27.1874776 L6.2962914,27.1874779 C6.2962914,27.360068 6.15534377,27.4999804 5.98147658,27.4999804 L2.83332844,27.4999804 Z" id="path-3"></path>
        <path d="M27.3874314,20.1594858 L27.3874298,20.1594835 C26.2913681,18.5818925 25.1025495,17.0724516 23.8274128,15.6393363 L23.8274128,15.6393363 C23.7723942,15.5763348 23.7453251,15.4932441 23.7525296,15.4094773 C24.043469,11.8497682 24.3196772,8.15338613 24.3196772,6.97427131 C24.3196772,5.43980683 22.2401362,2.22053762 21.5060361,1.13460891 L21.5060361,1.13460893 C21.4092992,0.992907654 21.2173838,0.957408719 21.0773806,1.05531886 C21.0467486,1.07674123 21.0202064,1.10360541 20.9990407,1.13460893 C20.2624855,2.22426508 18.1829445,5.44477677 18.1829445,6.97427133 C18.1829445,7.59551201 18.4812494,11.5428753 18.7844646,15.3833852 L18.7844646,15.3833853 C18.7915479,15.4683265 18.7635489,15.5524423 18.7071263,15.6157293 L18.7071223,15.6157337 C17.4001173,17.0521912 16.1828493,18.5697207 15.0624014,20.159488 L15.0624011,20.1594887 C14.6849878,21.0521271 14.4935865,22.0139791 14.5001639,22.9848914 L14.5001639,24.4187149 L14.500164,24.4187151 C14.5061495,24.6552289 14.6570158,24.8629544 14.8782623,24.9393148 L14.8782623,24.9393148 C15.1064177,25.0263243 15.3634055,24.9785109 15.5460724,24.8150667 L18.8347916,21.7088633 L18.8347916,21.7088633 C18.9587882,21.5919042 19.1529847,21.5988278 19.2685416,21.7243278 C19.3171912,21.7771632 19.3461298,21.8455055 19.35038,21.9175995 L19.35038,21.9586014 L19.35038,21.9586008 C19.3893924,22.6155305 19.9277435,23.1277186 20.5779721,23.1265333 L21.9283234,23.1265333 L21.9283234,23.1265333 C22.5767706,23.1278787 23.1144167,22.6185386 23.1559154,21.9635707 L23.1559154,21.9635708 C23.1728814,21.7970199 23.3200335,21.6759239 23.4845885,21.6930963 C23.5427857,21.6991693 23.5979517,21.7223596 23.6432756,21.7598039 L26.9577743,24.8386727 L26.9577742,24.8386726 C27.1417878,24.9988247 27.3978611,25.043692 27.6243567,24.955466 L27.6243567,24.955466 C27.8446358,24.8782716 27.9943861,24.6707353 28,24.4348663 L28,22.3735897 L28,22.3735997 C27.9872866,21.5945353 27.7763069,20.8319537 27.3874365,20.1594979 L27.3874314,20.1594858 Z" id="path-4"></path>
    </defs>
    <g id="Support" stroke="none" stroke-width="1" fill="none" fill-rule="evenodd">
        <g id="Support-cat-icons" transform="translate(-134.000000, -592.000000)">
            <g id="Group-10" transform="translate(36.000000, 592.000000)">
                <g id="Molecules-/-Cards-/-Feature-Grid-Block">
                    <g id="cat_01" transform="translate(98.000000, 0.000000)">
                        <g id="Atoms-/-Icons-/-Backgrounds-/-Colours" fill-rule="nonzero">
                            <use fill="#FFFFFF" xlink:href="#path-1"></use>
                            <use fill-opacity="0.1" fill="#6854BA" xlink:href="#path-1"></use>
                        </g>
                        <g id="Atoms-/-Icons-/-Features-Demos-/-Launch" transform="translate(20.000000, 20.000000)">
                            <g id="space-rocket-launch" transform="translate(2.000000, 2.000000)">
                                <g id="Path">
                                    <use fill="#FFFFFF" xlink:href="#path-2"></use>
                                    <use fill="#6854BA" xlink:href="#path-2"></use>
                                </g>
                                <g id="Shape">
                                    <use fill="#FFFFFF" xlink:href="#path-3"></use>
                                    <use fill="#9380E4" xlink:href="#path-3"></use>
                                </g>
                                <g id="Path">
                                    <use fill="#FFFFFF" xlink:href="#path-4"></use>
                                    <use fill="#6854BA" xlink:href="#path-4"></use>
                                </g>
                            </g>
                        </g>
                    </g>
                </g>
            </g>
        </g>
    </g>
</svg>