<?xml version="1.0" encoding="UTF-8"?>
<svg width="72px" height="72px" viewBox="0 0 72 72" version="1.1" xmlns="http://www.w3.org/2000/svg" xmlns:xlink="http://www.w3.org/1999/xlink">
    <title>Molecules / Cards / HelpCenter / cat_unknown</title>
    <defs>
        <circle id="path-1" cx="36" cy="36" r="36"></circle>
    </defs>
    <g id="Molecules-/-Cards-/-HelpCenter-/-cat_unknown" stroke="none" stroke-width="1" fill="none" fill-rule="evenodd">
        <g id="Molecules-/-Cards-/-Feature-Grid-Block" fill-rule="nonzero">
            <g id="Atoms-/-Icons-/-Backgrounds-/-Colours">
                <use fill="#FFFFFF" xlink:href="#path-1"></use>
                <use fill-opacity="0.1" fill="#4C4C4C" xlink:href="#path-1"></use>
            </g>
        </g>
        <path d="M19.919,26 L19.919,22.789 L21.414,22.789 C21.8646667,22.789 22.2828333,22.7196667 22.6685,22.581 C23.0541667,22.4423333 23.3835,22.2473333 23.6565,21.996 C23.9295,21.7446667 24.144,21.4435 24.3,21.0925 C24.456,20.7415 24.534,20.3536667 24.534,19.929 C24.534,19.5043333 24.456,19.1165 24.3,18.7655 C24.144,18.4145 23.9295,18.1133333 23.6565,17.862 C23.3835,17.6106667 23.0541667,17.4135 22.6685,17.2705 C22.2828333,17.1275 21.8646667,17.056 21.414,17.056 L21.414,17.056 L18.255,17.056 L18.255,26 L19.919,26 Z M21.18,21.437 L19.919,21.437 L19.919,18.408 L21.18,18.408 C21.6653333,18.408 22.0596667,18.5466667 22.363,18.824 C22.6663333,19.1013333 22.818,19.4696667 22.818,19.929 C22.818,20.3796667 22.6663333,20.7436667 22.363,21.021 C22.0596667,21.2983333 21.6653333,21.437 21.18,21.437 L21.18,21.437 Z M27.576,26 L27.576,16.653 L25.912,16.653 L25.912,26 L27.576,26 Z M32.295,26.156 C33.023,26.156 33.7596667,25.987 34.505,25.649 L34.505,25.649 L34.505,24.258 C34.167,24.4573333 33.8355,24.609 33.5105,24.713 C33.1855,24.817 32.8713333,24.869 32.568,24.869 C32.022,24.869 31.5691667,24.7151667 31.2095,24.4075 C30.8498333,24.0998333 30.644,23.699 30.592,23.205 L30.592,23.205 L34.999,23.205 C35.0163333,23.0923333 35.025,22.9861667 35.025,22.8865 L35.025,22.8865 L35.025,22.594 C35.025,22.1173333 34.9556667,21.6796667 34.817,21.281 C34.6783333,20.8823333 34.4833333,20.54 34.232,20.254 C33.9806667,19.968 33.6795,19.7448333 33.3285,19.5845 C32.9775,19.4241667 32.5896667,19.344 32.165,19.344 C31.697,19.344 31.268,19.4263333 30.878,19.591 C30.488,19.7556667 30.15,19.9875 29.864,20.2865 C29.578,20.5855 29.3548333,20.9386667 29.1945,21.346 C29.0341667,21.7533333 28.954,22.204 28.954,22.698 C28.954,23.2093333 29.0363333,23.6751667 29.201,24.0955 C29.3656667,24.5158333 29.5953333,24.8798333 29.89,25.1875 C30.1846667,25.4951667 30.5356667,25.7335 30.943,25.9025 C31.3503333,26.0715 31.801,26.156 32.295,26.156 Z M33.426,22.126 L30.592,22.126 C30.6353333,21.6753333 30.7956667,21.3135 31.073,21.0405 C31.3503333,20.7675 31.6926667,20.631 32.1,20.631 C32.4726667,20.631 32.7803333,20.7696667 33.023,21.047 C33.2656667,21.3243333 33.4,21.684 33.426,22.126 L33.426,22.126 Z M37.976,26.156 C38.6433333,26.156 39.2673333,25.9306667 39.848,25.48 L39.848,25.48 L39.848,26 L41.434,26 L41.434,21.736 C41.434,21.3893333 41.3711667,21.0686667 41.2455,20.774 C41.1198333,20.4793333 40.9443333,20.2258333 40.719,20.0135 C40.4936667,19.8011667 40.2206667,19.6365 39.9,19.5195 C39.5793333,19.4025 39.2196667,19.344 38.821,19.344 C38.431,19.344 38.041,19.3873333 37.651,19.474 C37.261,19.5606667 36.8666667,19.695 36.468,19.877 L36.468,19.877 L36.468,21.255 C36.8406667,21.047 37.209,20.891 37.573,20.787 C37.937,20.683 38.288,20.631 38.626,20.631 C38.99,20.631 39.2846667,20.7263333 39.51,20.917 C39.7353333,21.1076667 39.848,21.3546667 39.848,21.658 L39.848,21.658 L39.848,21.957 C39.7006667,21.9483333 39.562,21.9418333 39.432,21.9375 C39.302,21.9331667 39.172,21.931 39.042,21.931 C38.574,21.931 38.1493333,21.9873333 37.768,22.1 C37.3866667,22.2126667 37.0573333,22.3686667 36.78,22.568 C36.5026667,22.7673333 36.2881667,23.0078333 36.1365,23.2895 C35.9848333,23.5711667 35.909,23.881 35.909,24.219 C35.909,24.505 35.961,24.7671667 36.065,25.0055 C36.169,25.2438333 36.312,25.4475 36.494,25.6165 C36.676,25.7855 36.8926667,25.9176667 37.144,26.013 C37.3953333,26.1083333 37.6726667,26.156 37.976,26.156 Z M38.522,24.869 C38.236,24.869 38.002,24.7866667 37.82,24.622 C37.638,24.4573333 37.547,24.245 37.547,23.985 C37.547,23.673 37.6921667,23.4173333 37.9825,23.218 C38.2728333,23.0186667 38.652,22.919 39.12,22.919 C39.3713333,22.919 39.614,22.932 39.848,22.958 L39.848,22.958 L39.848,24.232 C39.6486667,24.4313333 39.4341667,24.5873333 39.2045,24.7 C38.9748333,24.8126667 38.7473333,24.869 38.522,24.869 Z M44.944,26.156 C45.3166667,26.156 45.6611667,26.1061667 45.9775,26.0065 C46.2938333,25.9068333 46.5625,25.766 46.7835,25.584 C47.0045,25.402 47.1778333,25.1853333 47.3035,24.934 C47.4291667,24.6826667 47.492,24.4053333 47.492,24.102 C47.492,23.712 47.4183333,23.3978333 47.271,23.1595 C47.1236667,22.9211667 46.9373333,22.7283333 46.712,22.581 C46.4866667,22.4336667 46.244,22.3166667 45.984,22.23 C45.724,22.1433333 45.4813333,22.061 45.256,21.983 C45.0306667,21.905 44.8443333,21.8183333 44.697,21.723 C44.5496667,21.6276667 44.476,21.4933333 44.476,21.32 C44.476,21.1206667 44.5626667,20.9603333 44.736,20.839 C44.9093333,20.7176667 45.1346667,20.657 45.412,20.657 C46.0013333,20.657 46.5776667,20.826 47.141,21.164 L47.141,21.164 L47.141,19.721 C46.5343333,19.4696667 45.919,19.344 45.295,19.344 C44.931,19.344 44.5973333,19.3938333 44.294,19.4935 C43.9906667,19.5931667 43.7285,19.7296667 43.5075,19.903 C43.2865,20.0763333 43.1153333,20.2865 42.994,20.5335 C42.8726667,20.7805 42.812,21.0513333 42.812,21.346 C42.812,21.7273333 42.8856667,22.035 43.033,22.269 C43.1803333,22.503 43.3666667,22.6915 43.592,22.8345 C43.8173333,22.9775 44.06,23.0923333 44.32,23.179 C44.58,23.2656667 44.8226667,23.348 45.048,23.426 C45.2733333,23.504 45.4596667,23.595 45.607,23.699 C45.7543333,23.803 45.828,23.946 45.828,24.128 C45.828,24.336 45.737,24.5071667 45.555,24.6415 C45.373,24.7758333 45.1346667,24.843 44.84,24.843 C44.2246667,24.843 43.5963333,24.6436667 42.955,24.245 L42.955,24.245 L42.955,25.714 C43.6396667,26.0086667 44.3026667,26.156 44.944,26.156 Z M51.769,26.156 C52.497,26.156 53.2336667,25.987 53.979,25.649 L53.979,25.649 L53.979,24.258 C53.641,24.4573333 53.3095,24.609 52.9845,24.713 C52.6595,24.817 52.3453333,24.869 52.042,24.869 C51.496,24.869 51.0431667,24.7151667 50.6835,24.4075 C50.3238333,24.0998333 50.118,23.699 50.066,23.205 L50.066,23.205 L54.473,23.205 C54.4903333,23.0923333 54.499,22.9861667 54.499,22.8865 L54.499,22.8865 L54.499,22.594 C54.499,22.1173333 54.4296667,21.6796667 54.291,21.281 C54.1523333,20.8823333 53.9573333,20.54 53.706,20.254 C53.4546667,19.968 53.1535,19.7448333 52.8025,19.5845 C52.4515,19.4241667 52.0636667,19.344 51.639,19.344 C51.171,19.344 50.742,19.4263333 50.352,19.591 C49.962,19.7556667 49.624,19.9875 49.338,20.2865 C49.052,20.5855 48.8288333,20.9386667 48.6685,21.346 C48.5081667,21.7533333 48.428,22.204 48.428,22.698 C48.428,23.2093333 48.5103333,23.6751667 48.675,24.0955 C48.8396667,24.5158333 49.0693333,24.8798333 49.364,25.1875 C49.6586667,25.4951667 50.0096667,25.7335 50.417,25.9025 C50.8243333,26.0715 51.275,26.156 51.769,26.156 Z M52.9,22.126 L50.066,22.126 C50.1093333,21.6753333 50.2696667,21.3135 50.547,21.0405 C50.8243333,20.7675 51.1666667,20.631 51.574,20.631 C51.9466667,20.631 52.2543333,20.7696667 52.497,21.047 C52.7396667,21.3243333 52.874,21.684 52.9,22.126 L52.9,22.126 Z M16.955,40 L16.955,35.658 C17.1716667,35.3806667 17.4165,35.1705 17.6895,35.0275 C17.9625,34.8845 18.2376667,34.813 18.515,34.813 C18.723,34.813 18.918,34.839 19.1,34.891 L19.1,34.891 L19.1,33.409 C19.0046667,33.383 18.9136667,33.3656667 18.827,33.357 C18.7403333,33.3483333 18.6493333,33.344 18.554,33.344 C17.9733333,33.344 17.4403333,33.6126667 16.955,34.15 L16.955,34.15 L16.955,33.5 L15.291,33.5 L15.291,40 L16.955,40 Z M23.247,40.156 C23.975,40.156 24.7116667,39.987 25.457,39.649 L25.457,39.649 L25.457,38.258 C25.119,38.4573333 24.7875,38.609 24.4625,38.713 C24.1375,38.817 23.8233333,38.869 23.52,38.869 C22.974,38.869 22.5211667,38.7151667 22.1615,38.4075 C21.8018333,38.0998333 21.596,37.699 21.544,37.205 L21.544,37.205 L25.951,37.205 C25.9683333,37.0923333 25.977,36.9861667 25.977,36.8865 L25.977,36.8865 L25.977,36.594 C25.977,36.1173333 25.9076667,35.6796667 25.769,35.281 C25.6303333,34.8823333 25.4353333,34.54 25.184,34.254 C24.9326667,33.968 24.6315,33.7448333 24.2805,33.5845 C23.9295,33.4241667 23.5416667,33.344 23.117,33.344 C22.649,33.344 22.22,33.4263333 21.83,33.591 C21.44,33.7556667 21.102,33.9875 20.816,34.2865 C20.53,34.5855 20.3068333,34.9386667 20.1465,35.346 C19.9861667,35.7533333 19.906,36.204 19.906,36.698 C19.906,37.2093333 19.9883333,37.6751667 20.153,38.0955 C20.3176667,38.5158333 20.5473333,38.8798333 20.842,39.1875 C21.1366667,39.4951667 21.4876667,39.7335 21.895,39.9025 C22.3023333,40.0715 22.753,40.156 23.247,40.156 Z M24.378,36.126 L21.544,36.126 C21.5873333,35.6753333 21.7476667,35.3135 22.025,35.0405 C22.3023333,34.7675 22.6446667,34.631 23.052,34.631 C23.4246667,34.631 23.7323333,34.7696667 23.975,35.047 C24.2176667,35.3243333 24.352,35.684 24.378,36.126 L24.378,36.126 Z M28.967,42.847 L28.967,39.545 C29.4956667,39.9523333 30.046,40.156 30.618,40.156 C31.0513333,40.156 31.4478333,40.0715 31.8075,39.9025 C32.1671667,39.7335 32.477,39.4995 32.737,39.2005 C32.997,38.9015 33.1985,38.544 33.3415,38.128 C33.4845,37.712 33.556,37.2526667 33.556,36.75 C33.556,36.2473333 33.4845,35.788 33.3415,35.372 C33.1985,34.956 32.997,34.5985 32.737,34.2995 C32.477,34.0005 32.1671667,33.7665 31.8075,33.5975 C31.4478333,33.4285 31.0513333,33.344 30.618,33.344 C30.046,33.344 29.4956667,33.5433333 28.967,33.942 L28.967,33.942 L28.967,33.5 L27.303,33.5 L27.303,42.847 L28.967,42.847 Z M30.267,38.726 C29.7903333,38.726 29.357,38.531 28.967,38.141 L28.967,38.141 L28.967,35.359 C29.357,34.969 29.7903333,34.774 30.267,34.774 C30.501,34.774 30.7155,34.8216667 30.9105,34.917 C31.1055,35.0123333 31.2723333,35.1466667 31.411,35.32 C31.5496667,35.4933333 31.658,35.7013333 31.736,35.944 C31.814,36.1866667 31.853,36.4553333 31.853,36.75 C31.853,37.0446667 31.814,37.3133333 31.736,37.556 C31.658,37.7986667 31.5496667,38.0066667 31.411,38.18 C31.2723333,38.3533333 31.1055,38.4876667 30.9105,38.583 C30.7155,38.6783333 30.501,38.726 30.267,38.726 Z M36.598,40 L36.598,30.653 L34.934,30.653 L34.934,40 L36.598,40 Z M40.043,40.156 C40.7103333,40.156 41.3343333,39.9306667 41.915,39.48 L41.915,39.48 L41.915,40 L43.501,40 L43.501,35.736 C43.501,35.3893333 43.4381667,35.0686667 43.3125,34.774 C43.1868333,34.4793333 43.0113333,34.2258333 42.786,34.0135 C42.5606667,33.8011667 42.2876667,33.6365 41.967,33.5195 C41.6463333,33.4025 41.2866667,33.344 40.888,33.344 C40.498,33.344 40.108,33.3873333 39.718,33.474 C39.328,33.5606667 38.9336667,33.695 38.535,33.877 L38.535,33.877 L38.535,35.255 C38.9076667,35.047 39.276,34.891 39.64,34.787 C40.004,34.683 40.355,34.631 40.693,34.631 C41.057,34.631 41.3516667,34.7263333 41.577,34.917 C41.8023333,35.1076667 41.915,35.3546667 41.915,35.658 L41.915,35.658 L41.915,35.957 C41.7676667,35.9483333 41.629,35.9418333 41.499,35.9375 C41.369,35.9331667 41.239,35.931 41.109,35.931 C40.641,35.931 40.2163333,35.9873333 39.835,36.1 C39.4536667,36.2126667 39.1243333,36.3686667 38.847,36.568 C38.5696667,36.7673333 38.3551667,37.0078333 38.2035,37.2895 C38.0518333,37.5711667 37.976,37.881 37.976,38.219 C37.976,38.505 38.028,38.7671667 38.132,39.0055 C38.236,39.2438333 38.379,39.4475 38.561,39.6165 C38.743,39.7855 38.9596667,39.9176667 39.211,40.013 C39.4623333,40.1083333 39.7396667,40.156 40.043,40.156 Z M40.589,38.869 C40.303,38.869 40.069,38.7866667 39.887,38.622 C39.705,38.4573333 39.614,38.245 39.614,37.985 C39.614,37.673 39.7591667,37.4173333 40.0495,37.218 C40.3398333,37.0186667 40.719,36.919 41.187,36.919 C41.4383333,36.919 41.681,36.932 41.915,36.958 L41.915,36.958 L41.915,38.232 C41.7156667,38.4313333 41.5011667,38.5873333 41.2715,38.7 C41.0418333,38.8126667 40.8143333,38.869 40.589,38.869 Z M48.168,40.156 C48.818,40.156 49.4723333,40.0043333 50.131,39.701 L50.131,39.701 L50.131,38.206 C49.559,38.5786667 49.0043333,38.765 48.467,38.765 C48.181,38.765 47.921,38.7151667 47.687,38.6155 C47.453,38.5158333 47.2493333,38.3771667 47.076,38.1995 C46.9026667,38.0218333 46.7683333,37.8095 46.673,37.5625 C46.5776667,37.3155 46.53,37.0446667 46.53,36.75 C46.53,36.4553333 46.5776667,36.1823333 46.673,35.931 C46.7683333,35.6796667 46.9026667,35.4673333 47.076,35.294 C47.2493333,35.1206667 47.453,34.9841667 47.687,34.8845 C47.921,34.7848333 48.181,34.735 48.467,34.735 C49.0043333,34.735 49.559,34.9213333 50.131,35.294 L50.131,35.294 L50.131,33.799 C49.4723333,33.4956667 48.818,33.344 48.168,33.344 C47.674,33.344 47.2233333,33.4285 46.816,33.5975 C46.4086667,33.7665 46.0576667,34.0005 45.763,34.2995 C45.4683333,34.5985 45.2386667,34.956 45.074,35.372 C44.9093333,35.788 44.827,36.2473333 44.827,36.75 C44.827,37.244 44.9093333,37.7011667 45.074,38.1215 C45.2386667,38.5418333 45.4683333,38.9015 45.763,39.2005 C46.0576667,39.4995 46.4086667,39.7335 46.816,39.9025 C47.2233333,40.0715 47.674,40.156 48.168,40.156 Z M54.473,40.156 C55.201,40.156 55.9376667,39.987 56.683,39.649 L56.683,39.649 L56.683,38.258 C56.345,38.4573333 56.0135,38.609 55.6885,38.713 C55.3635,38.817 55.0493333,38.869 54.746,38.869 C54.2,38.869 53.7471667,38.7151667 53.3875,38.4075 C53.0278333,38.0998333 52.822,37.699 52.77,37.205 L52.77,37.205 L57.177,37.205 C57.1943333,37.0923333 57.203,36.9861667 57.203,36.8865 L57.203,36.8865 L57.203,36.594 C57.203,36.1173333 57.1336667,35.6796667 56.995,35.281 C56.8563333,34.8823333 56.6613333,34.54 56.41,34.254 C56.1586667,33.968 55.8575,33.7448333 55.5065,33.5845 C55.1555,33.4241667 54.7676667,33.344 54.343,33.344 C53.875,33.344 53.446,33.4263333 53.056,33.591 C52.666,33.7556667 52.328,33.9875 52.042,34.2865 C51.756,34.5855 51.5328333,34.9386667 51.3725,35.346 C51.2121667,35.7533333 51.132,36.204 51.132,36.698 C51.132,37.2093333 51.2143333,37.6751667 51.379,38.0955 C51.5436667,38.5158333 51.7733333,38.8798333 52.068,39.1875 C52.3626667,39.4951667 52.7136667,39.7335 53.121,39.9025 C53.5283333,40.0715 53.979,40.156 54.473,40.156 Z M55.604,36.126 L52.77,36.126 C52.8133333,35.6753333 52.9736667,35.3135 53.251,35.0405 C53.5283333,34.7675 53.8706667,34.631 54.278,34.631 C54.6506667,34.631 54.9583333,34.7696667 55.201,35.047 C55.4436667,35.3243333 55.578,35.684 55.604,36.126 L55.604,36.126 Z M29.383,54 L29.383,49.463 C29.591,49.2376667 29.8076667,49.0708333 30.033,48.9625 C30.2583333,48.8541667 30.4793333,48.8 30.696,48.8 C30.9993333,48.8 31.2463333,48.9018333 31.437,49.1055 C31.6276667,49.3091667 31.723,49.567 31.723,49.879 L31.723,49.879 L31.723,54 L33.387,54 L33.387,49.463 C33.595,49.2376667 33.8116667,49.0708333 34.037,48.9625 C34.2623333,48.8541667 34.4833333,48.8 34.7,48.8 C35.0033333,48.8 35.2481667,48.9018333 35.4345,49.1055 C35.6208333,49.3091667 35.714,49.567 35.714,49.879 L35.714,49.879 L35.714,54 L37.378,54 L37.378,49.619 C37.378,49.281 37.326,48.9733333 37.222,48.696 C37.118,48.4186667 36.9706667,48.1803333 36.78,47.981 C36.5893333,47.7816667 36.3618333,47.6256667 36.0975,47.513 C35.8331667,47.4003333 35.5406667,47.344 35.22,47.344 C34.4313333,47.344 33.712,47.669 33.062,48.319 C32.8626667,47.9983333 32.6048333,47.7556667 32.2885,47.591 C31.9721667,47.4263333 31.619,47.344 31.229,47.344 C30.8996667,47.344 30.5811667,47.3981667 30.2735,47.5065 C29.9658333,47.6148333 29.669,47.786 29.383,48.02 L29.383,48.02 L29.383,47.5 L27.719,47.5 L27.719,54 L29.383,54 Z M42.045,54.156 C42.773,54.156 43.5096667,53.987 44.255,53.649 L44.255,53.649 L44.255,52.258 C43.917,52.4573333 43.5855,52.609 43.2605,52.713 C42.9355,52.817 42.6213333,52.869 42.318,52.869 C41.772,52.869 41.3191667,52.7151667 40.9595,52.4075 C40.5998333,52.0998333 40.394,51.699 40.342,51.205 L40.342,51.205 L44.749,51.205 C44.7663333,51.0923333 44.775,50.9861667 44.775,50.8865 L44.775,50.8865 L44.775,50.594 C44.775,50.1173333 44.7056667,49.6796667 44.567,49.281 C44.4283333,48.8823333 44.2333333,48.54 43.982,48.254 C43.7306667,47.968 43.4295,47.7448333 43.0785,47.5845 C42.7275,47.4241667 42.3396667,47.344 41.915,47.344 C41.447,47.344 41.018,47.4263333 40.628,47.591 C40.238,47.7556667 39.9,47.9875 39.614,48.2865 C39.328,48.5855 39.1048333,48.9386667 38.9445,49.346 C38.7841667,49.7533333 38.704,50.204 38.704,50.698 C38.704,51.2093333 38.7863333,51.6751667 38.951,52.0955 C39.1156667,52.5158333 39.3453333,52.8798333 39.64,53.1875 C39.9346667,53.4951667 40.2856667,53.7335 40.693,53.9025 C41.1003333,54.0715 41.551,54.156 42.045,54.156 Z M43.176,50.126 L40.342,50.126 C40.3853333,49.6753333 40.5456667,49.3135 40.823,49.0405 C41.1003333,48.7675 41.4426667,48.631 41.85,48.631 C42.2226667,48.631 42.5303333,48.7696667 42.773,49.047 C43.0156667,49.3243333 43.15,49.684 43.176,50.126 L43.176,50.126 Z" id="Pleasereplaceme" fill="#828282" fill-rule="nonzero"></path>
    </g>
</svg>