<?xml version="1.0" encoding="UTF-8"?>
<svg width="72px" height="72px" viewBox="0 0 72 72" version="1.1" xmlns="http://www.w3.org/2000/svg" xmlns:xlink="http://www.w3.org/1999/xlink">
    <!-- Generator: Sketch 59 (86127) - https://sketch.com -->
    <title>cat_12</title>
    <desc>Created with Sketch.</desc>
    <defs>
        <circle id="path-1" cx="36" cy="36" r="36"></circle>
        <linearGradient x1="40.2573094%" y1="0%" x2="60.9974254%" y2="83.8491587%" id="linearGradient-2">
            <stop stop-color="#6EB9D3" offset="0%"></stop>
            <stop stop-color="#549FBA" offset="51.8924198%"></stop>
            <stop stop-color="#3B87A3" offset="100%"></stop>
        </linearGradient>
    </defs>
    <g id="Support" stroke="none" stroke-width="1" fill="none" fill-rule="evenodd">
        <g id="Support-cat-icons" transform="translate(-983.000000, -1496.000000)" fill-rule="nonzero">
            <g id="Group-10" transform="translate(134.000000, 592.000000)">
                <g id="cat_12" transform="translate(849.000000, 904.000000)">
                    <g id="Molecules-/-Cards-/-Feature-Grid-Block">
                        <g id="Atoms-/-Icons-/-Backgrounds-/-Colours">
                            <use fill="#FFFFFF" xlink:href="#path-1"></use>
                            <use fill-opacity="0.0972882699" fill="#549FBA" xlink:href="#path-1"></use>
                        </g>
                        <g id="Atoms-/-Icons-/-que" transform="translate(20.000000, 20.000000)" fill="url(#linearGradient-2)">
                            <path d="M12,27.7287582 C12,26.7657904 12.3044632,25.9869311 12.9133987,25.3921569 C13.5223342,24.7973826 14.294113,24.5 15.2287582,24.5 C16.1917259,24.5 16.9776658,24.7973826 17.5866013,25.3921569 C18.1955368,25.9869311 18.5,26.7657904 18.5,27.7287582 C18.5,28.6917259 18.1955368,29.4776658 17.5866013,30.0866013 C16.9776658,30.6955368 16.1917259,31 15.2287582,31 C14.294113,31 13.5223342,30.6955368 12.9133987,30.0866013 C12.3044632,29.4776658 12,28.6917259 12,27.7287582 Z M12.6983696,20.1221996 C12.6983696,19.2036614 12.8274444,18.3895148 13.0855978,17.6797352 C13.3437513,16.9699557 13.669835,16.3228135 14.0638587,15.7382892 C14.3265412,15.3486063 14.6043175,14.9774834 14.8971914,14.6249156 L15.3478261,14.1099796 C15.8097849,13.6089588 16.2377698,13.1079455 16.6317935,12.6069246 C17.0258172,12.1059038 17.3519009,11.5840149 17.6100543,11.0412424 C17.8682078,10.4984698 17.9972826,9.8930787 17.9972826,9.22505092 C17.9972826,8.19517476 17.6576121,7.34623552 16.9782609,6.67820774 C16.2989096,6.01017996 15.4021795,5.67617108 14.2880435,5.67617108 C12.4402082,5.67617108 10.5108796,6.55294439 8.5,8.30651731 L8.5,3.33808554 C10.6739239,1.77935405 12.9836834,1 15.4293478,1 C16.625006,1 17.718745,1.18787999 18.7105978,1.56364562 C19.7024506,1.93941125 20.5516269,2.46130012 21.2581522,3.1293279 C21.9646774,3.79735568 22.5149437,4.59062677 22.9089674,5.50916497 C23.3029911,6.42770317 23.5,7.42972981 23.5,8.51527495 C23.5,10.0183375 23.2010899,11.3126219 22.6032609,12.398167 C22.0054318,13.4837121 21.3396776,14.4718218 20.6059783,15.3625255 C19.8722789,16.2532292 19.2065247,17.1021684 18.6086957,17.9093686 C18.0108666,18.7165689 17.7119565,19.5933422 17.7119565,20.5397149 L17.7119565,21.5 L12.6983696,21.5 L12.6983696,20.1221996 Z" id="?"></path>
                        </g>
                    </g>
                </g>
            </g>
        </g>
    </g>
</svg>