<svg xmlns="http://www.w3.org/2000/svg" xmlns:xlink="http://www.w3.org/1999/xlink" width="72" height="72" viewBox="0 0 72 72">
  <defs/>
  <defs>
    <circle id="a" cx="36" cy="36" r="36"/>
  </defs>
  <g fill="none" fill-rule="evenodd">
    <g fill-rule="nonzero">
      <use fill="#FFF" xlink:href="#a"/>
      <use fill="#694EFF" fill-opacity=".1" xlink:href="#a"/>
    </g>
    <g fill="#694EFF">
      <path fill-rule="nonzero" d="M35.908 50.648c-.4.048-.766-.404-1.136-.74-3.723-3.387-7.449-6.76-11.104-10.243-1.682-1.601-3.443-3.148-4.221-5.495-1.169-3.522 0-7.711 2.974-10.11a9.353 9.353 0 015.712-2.054h.141c2.96.017 5.875 1.548 7.592 4.007.465.666-.587 1.582-.847 2.225-.022.055-.156-.3-.176-.245-.027-.055-.061-.141-.09-.197-1.237-2.326-3.77-3.879-6.442-3.91l-.09-.001c-2.67.009-5.282 1.563-6.538 3.993-1.23 2.382-1.133 5.414.601 7.645 1.021 1.314 2.294 2.422 3.521 3.577 2.925 2.753 5.896 5.464 8.865 8.173l.526.524s.252 2.73.46 2.814a.59.59 0 00.252.037z"/>
      <path d="M43.514 22.013c3.129.013 6.212 1.71 7.874 4.436 1.742 2.86 1.82 6.743.04 9.524-.898 1.404-2.155 2.539-3.38 3.704-3.845 3.655-7.773 7.203-11.69 10.753l-.116.106a.621.621 0 01-.66.039c-.378-.219-.32-.832-.355-1.356-.35-5.428-.757-10.86-.912-16.29-.06-2.053-.015-4.11 1-6.015 1.553-2.92 4.723-4.874 8.114-4.901h.085zm-.01 5.827a3.404 3.404 0 013.403 3.402 3.404 3.404 0 01-6.807 0 3.404 3.404 0 013.403-3.402z"/>
      <path fill-rule="nonzero" d="M28.248 26.978c1.54.015 3.028.92 3.744 2.276a4.32 4.32 0 01.08 3.808c-.797 1.68-2.761 2.725-4.658 2.361-1.74-.333-3.183-1.858-3.418-3.615a4.335 4.335 0 011.322-3.688 4.316 4.316 0 012.875-1.142h.055zm-.043 1.88c-1.07.01-2.082.817-2.312 1.87-.323 1.487 1.048 3.16 2.75 2.855.965-.173 1.782-1.003 1.931-1.98.202-1.323-.876-2.722-2.322-2.745h-.047z"/>
    </g>
  </g>
</svg>
