<svg xmlns="http://www.w3.org/2000/svg" width="72" height="72" viewBox="0 0 72 72">
  <g id="Page-1" fill="none" fill-rule="evenodd" stroke="none" stroke-width="1">
    <g id="rosie-copy-2" fill-rule="nonzero">
      <circle id="Oval" cx="36" cy="36" r="35.911" fill="#F6FAEF"/>
      <path id="Path" fill="#7C9443" d="M28.519 47.6l18.74-18.741-4.311-3.792-18.267 18.266"/>
      <path id="Shape" fill="#A5C559" d="M50.444 47.348h.015l3.482 1.156a.591.591 0 00.77-.623c-.355-2.814-2.652-5.081-5.585-5.288a6.382 6.382 0 00-2 .192.59.59 0 01-.578-.148l-16.83-16.83a.617.617 0 01-.148-.592c.178-.563.267-1.17.267-1.808a6.041 6.041 0 00-6.044-6.044 6.04 6.04 0 00-4.445 1.94c-.296.327-.148.86.282.964l3.185.814a.591.591 0 01.355.267l.252.43a.583.583 0 01.06.444l-.475 1.852a.591.591 0 01-.266.356l-.622.37h-.015l-3.556-.904a.592.592 0 00-.726.682 6.044 6.044 0 005.941 4.874c.356 0 .711-.03 1.052-.089.178-.03.355.03.489.148l17.333 17.304c.148.148.207.34.163.548-.06.281-.104.563-.119.844-.237 3.334 2.282 6.223 5.615 6.46a6.059 6.059 0 004.563-1.63.577.577 0 00-.222-.978l-3.126-1.037a.56.56 0 01-.34-.296l-.223-.445a.519.519 0 01-.03-.444l.593-1.807a.56.56 0 01.296-.341l.637-.34zm4.208-24.133c-.104-3.185-2.696-5.793-5.896-5.896-3.526-.119-6.4 2.77-6.297 6.296.104 3.185 2.697 5.792 5.897 5.896a6.111 6.111 0 006.296-6.296zm-3.6.681l-.83 1.452a.946.946 0 01-.83.474H47.72a.964.964 0 01-.83-.474l-.83-1.452a.98.98 0 010-.948l.83-1.452a.946.946 0 01.83-.474h1.674c.34 0 .651.178.83.474l.829 1.452a.98.98 0 010 .948zm-21.57 24.49c-.104-3.186-2.697-5.793-5.897-5.897-3.526-.119-6.4 2.77-6.296 6.296.104 3.185 2.696 5.793 5.896 5.896a6.111 6.111 0 006.296-6.296zm-3.6.68l-.83 1.453a.946.946 0 01-.83.474h-1.674a.964.964 0 01-.83-.474l-.83-1.452a.98.98 0 010-.948l.83-1.452a.946.946 0 01.83-.474h1.674c.341 0 .652.177.83.474l.83 1.452a.98.98 0 010 .948z"/>
    </g>
  </g>
</svg>
