<?xml version="1.0" encoding="UTF-8"?>
<svg width="72px" height="72px" viewBox="0 0 72 72" version="1.1" xmlns="http://www.w3.org/2000/svg" xmlns:xlink="http://www.w3.org/1999/xlink">
    <!-- Generator: Sketch 59 (86127) - https://sketch.com -->
    <title>cat_14</title>
    <desc>Created with Sketch.</desc>
    <defs>
        <circle id="path-1" cx="36" cy="36" r="36"></circle>
        <path d="M30.72,3.6352 L30.7200001,3.63519242 C30.7492444,1.83729162 29.3178113,0.354910817 27.5199873,0.321285216 L3.19998732,0.321285216 L3.19998737,0.321285216 C1.40216337,0.354921184 -0.0292606319,1.83730442 -1.26318864e-05,3.63520522 L-1.26318864e-05,21.4412852 L-1.26318863e-05,21.4412858 C-1.23116585e-05,23.5620538 1.71921937,25.2812858 3.83998737,25.2812858 L13.1199874,25.2812858 L13.1199874,25.2812858 C13.2967182,25.2812858 13.4399874,25.4245549 13.4399874,25.6012858 L13.4399874,27.5212858 L13.4399874,27.5212858 C13.4399874,27.6980167 13.2967182,27.8412858 13.1199874,27.8412858 L6.39998735,27.8412858 L6.3999873,27.8412858 C5.6930625,27.8412858 5.1199873,28.414361 5.1199873,29.1212858 C5.11998733,29.8282106 5.6930625,30.4012858 6.3999873,30.4012858 L24.3199873,30.4012858 L24.3199872,30.4012858 C25.026912,30.4012858 25.5999872,29.8282106 25.5999872,29.1212858 C25.5999873,28.414361 25.026912,27.8412858 24.3199872,27.8412858 L16.3199872,27.8412858 L16.3199872,27.8412858 C16.1432563,27.8412858 15.9999872,27.6980167 15.9999872,27.5212858 C15.9999872,27.5212858 15.9999872,27.5212858 15.9999872,27.5212858 L15.9999872,25.6000058 L15.9999872,25.6000058 C15.9999872,25.423275 16.1432563,25.2800058 16.3199872,25.2800058 L26.8799872,25.2800058 L26.8799871,25.2800058 C29.0007551,25.2800059 30.7199871,23.5607738 30.7199871,21.4400058 L30.72,3.6352 Z M2.56,3.6352 L2.56000002,3.6352003 C2.5318998,3.25136798 2.81669762,2.91587486 3.20000002,2.8812803 L27.52,2.8812803 L27.52,2.8812803 C27.9033024,2.91587537 28.1880999,3.25136798 28.16,3.6352003 L28.16,18.8812803 L28.16,18.8812803 C28.16,19.2347421 27.8734618,19.5212803 27.52,19.5212803 L3.20000004,19.5212803 L3.20000001,19.5212803 C2.84653825,19.5212803 2.56000001,19.2347421 2.56000001,18.8812803 C2.56000001,18.8812803 2.56000001,18.8812803 2.56000001,18.8812803 L2.56,3.6352 Z" id="path-2"></path>
        <path d="M7.68,16.96128 C7.3265408,16.96128 7.04,16.6747392 7.04,16.32128 L7.04,12.48128 C7.04,12.1278208 7.3265408,11.84128 7.68,11.84128 L10.24,11.84128 C10.5934592,11.84128 10.88,12.1278208 10.88,12.48128 L10.88,16.32128 C10.88,16.6747392 10.5934592,16.96128 10.24,16.96128 L7.68,16.96128 Z" id="path-3"></path>
        <path d="M14.08,16.96128 C13.7265408,16.96128 13.44,16.6747392 13.44,16.32128 L13.44,9.92128 C13.44,9.5678208 13.7265408,9.28128 14.08,9.28128 L16.64,9.28128 C16.9934592,9.28128 17.28,9.5678208 17.28,9.92128 L17.28,16.32128 C17.28,16.6747392 16.9934592,16.96128 16.64,16.96128 L14.08,16.96128 Z" id="path-4"></path>
        <path d="M20.48,16.96128 C20.1265408,16.96128 19.84,16.6747392 19.84,16.32128 L19.84,6.72128 C19.84,6.3678208 20.1265408,6.08128 20.48,6.08128 L23.04,6.08128 C23.3934592,6.08128 23.68,6.3678208 23.68,6.72128 L23.68,16.32128 C23.68,16.6747392 23.3934592,16.96128 23.04,16.96128 L20.48,16.96128 Z" id="path-5"></path>
    </defs>
    <g id="Support" stroke="none" stroke-width="1" fill="none" fill-rule="evenodd">
        <g id="Support-cat-icons" transform="translate(-462.000000, -392.000000)">
            <g id="Group-10" transform="translate(134.000000, 392.000000)">
                <g id="cat_14" transform="translate(328.000000, 0.000000)">
                    <g id="Atoms-/-Icons-/-Backgrounds-/-Colours" fill-rule="nonzero">
                        <use fill="#FFFFFF" xlink:href="#path-1"></use>
                        <use fill-opacity="0.1" fill="#6854BA" xlink:href="#path-1"></use>
                    </g>
                    <g id="monitor-graph" transform="translate(21.000000, 23.000000)">
                        <g id="Shape">
                            <use fill="#FFFFFF" xlink:href="#path-2"></use>
                            <use fill="#6854BA" xlink:href="#path-2"></use>
                        </g>
                        <g id="Path">
                            <use fill="#FFFFFF" xlink:href="#path-3"></use>
                            <use fill="#4F3C9E" xlink:href="#path-3"></use>
                        </g>
                        <g id="Path">
                            <use fill="#FFFFFF" xlink:href="#path-4"></use>
                            <use fill="#4F3C9E" xlink:href="#path-4"></use>
                        </g>
                        <g id="Path">
                            <use fill="#FFFFFF" xlink:href="#path-5"></use>
                            <use fill="#4F3C9E" xlink:href="#path-5"></use>
                        </g>
                    </g>
                </g>
            </g>
        </g>
    </g>
</svg>