<?xml version="1.0" encoding="UTF-8"?>
<svg width="72px" height="72px" viewBox="0 0 72 72" version="1.1" xmlns="http://www.w3.org/2000/svg" xmlns:xlink="http://www.w3.org/1999/xlink">
    <!-- Generator: Sketch 59 (86127) - https://sketch.com -->
    <title>cat_04</title>
    <desc>Created with Sketch.</desc>
    <defs>
        <circle id="path-1" cx="36" cy="36" r="36"></circle>
        <linearGradient x1="50.1319645%" y1="0.593840318%" x2="71.8484064%" y2="98.3178288%" id="linearGradient-2">
            <stop stop-color="#9FCDDD" offset="0%"></stop>
            <stop stop-color="#6CADC4" offset="47.6314126%"></stop>
            <stop stop-color="#4A93AE" offset="100%"></stop>
        </linearGradient>
        <path d="M16,0 C21.8888889,0 26.6666667,4.77777778 26.6666667,10.6666667 C26.6666667,12.5555556 26.1481481,14.3703704 25.2962963,15.8888889 L16.5925926,31.6666667 C16.4814815,31.8518519 16.2222222,32 16,32 C15.7407407,32 15.5185185,31.8518519 15.4074074,31.6666667 L6.7037037,15.8888889 C5.81481481,14.3703704 5.33333333,12.5555556 5.33333333,10.6666667 C5.33333333,4.77777778 10.1111111,0 16,0 Z M16,14.6666667 C18.2222222,14.6666667 20,12.8888889 20,10.6666667 C20,8.44444444 18.2222222,6.66666667 16,6.66666667 C13.7777778,6.66666667 12,8.44444444 12,10.6666667 C12,12.8888889 13.7777778,14.6666667 16,14.6666667 Z" id="path-3"></path>
    </defs>
    <g id="Support" stroke="none" stroke-width="1" fill="none" fill-rule="evenodd">
        <g id="Support-cat-icons" transform="translate(-1151.000000, -592.000000)">
            <g id="Group-10" transform="translate(134.000000, 592.000000)">
                <g id="cat_04" transform="translate(1017.000000, 0.000000)">
                    <g id="Molecules-/-Cards-/-Feature-Grid-Block">
                        <g id="Atoms-/-Icons-/-Backgrounds-/-Colours" fill-rule="nonzero">
                            <use fill="#FFFFFF" xlink:href="#path-1"></use>
                            <use fill-opacity="0.0972882699" fill="#549FBA" xlink:href="#path-1"></use>
                        </g>
                        <g id="Atoms-/-Icons-/-support-/-ct" transform="translate(20.000000, 20.000000)">
                            <g id="Atoms-/-Tools-Menu-/-Icons-/-24-/-Blue-/-CT" transform="translate(-0.182539, 0.000000)">
                                <g id="Atoms-/-Icons-/-24-/-Blue-/-CT">
                                    <use fill="#FFFFFF" xlink:href="#path-3"></use>
                                    <use fill="url(#linearGradient-2)" xlink:href="#path-3"></use>
                                </g>
                            </g>
                        </g>
                    </g>
                </g>
            </g>
        </g>
    </g>
</svg>