<svg xmlns="http://www.w3.org/2000/svg" xmlns:xlink="http://www.w3.org/1999/xlink" width="72" height="72" viewBox="0 0 72 72">
  <defs/>
  <defs>
    <filter id="b" width="112.4%" height="140.3%" x="-6.2%" y="-10.1%" filterUnits="objectBoundingBox">
      <feMorphology in="SourceAlpha" radius=".5" result="shadowSpreadOuter1"/>
      <feOffset dy="1" in="shadowSpreadOuter1" result="shadowOffsetOuter1"/>
      <feGaussianBlur in="shadowOffsetOuter1" result="shadowBlurOuter1" stdDeviation=".5"/>
      <feColorMatrix in="shadowBlurOuter1" values="0 0 0 0 0 0 0 0 0 0 0 0 0 0 0 0 0 0 0.198645105 0"/>
    </filter>
    <filter id="d" width="112.4%" height="137.5%" x="-6.2%" y="-9.4%" filterUnits="objectBoundingBox">
      <feMorphology in="SourceAlpha" radius=".5" result="shadowSpreadOuter1"/>
      <feOffset dy="1" in="shadowSpreadOuter1" result="shadowOffsetOuter1"/>
      <feGaussianBlur in="shadowOffsetOuter1" result="shadowBlurOuter1" stdDeviation=".5"/>
      <feColorMatrix in="shadowBlurOuter1" values="0 0 0 0 0 0 0 0 0 0 0 0 0 0 0 0 0 0 0.198645105 0"/>
    </filter>
    <filter id="f" width="112.4%" height="137.5%" x="-6.2%" y="-9.4%" filterUnits="objectBoundingBox">
      <feMorphology in="SourceAlpha" radius=".5" result="shadowSpreadOuter1"/>
      <feOffset dy="1" in="shadowSpreadOuter1" result="shadowOffsetOuter1"/>
      <feGaussianBlur in="shadowOffsetOuter1" result="shadowBlurOuter1" stdDeviation=".5"/>
      <feColorMatrix in="shadowBlurOuter1" values="0 0 0 0 0 0 0 0 0 0 0 0 0 0 0 0 0 0 0.198645105 0"/>
    </filter>
    <filter id="h" width="112.4%" height="140.8%" x="-6.2%" y="-10.2%" filterUnits="objectBoundingBox">
      <feMorphology in="SourceAlpha" radius=".5" result="shadowSpreadOuter1"/>
      <feOffset dy="1" in="shadowSpreadOuter1" result="shadowOffsetOuter1"/>
      <feGaussianBlur in="shadowOffsetOuter1" result="shadowBlurOuter1" stdDeviation=".5"/>
      <feColorMatrix in="shadowBlurOuter1" values="0 0 0 0 0 0 0 0 0 0 0 0 0 0 0 0 0 0 0.198645105 0"/>
    </filter>
    <filter id="j" width="112.4%" height="137.5%" x="-6.2%" y="-9.4%" filterUnits="objectBoundingBox">
      <feMorphology in="SourceAlpha" radius=".5" result="shadowSpreadOuter1"/>
      <feOffset dy="1" in="shadowSpreadOuter1" result="shadowOffsetOuter1"/>
      <feGaussianBlur in="shadowOffsetOuter1" result="shadowBlurOuter1" stdDeviation=".5"/>
      <feColorMatrix in="shadowBlurOuter1" values="0 0 0 0 0 0 0 0 0 0 0 0 0 0 0 0 0 0 0.198645105 0"/>
    </filter>
    <filter id="l" width="112.4%" height="137.5%" x="-6.2%" y="-9.4%" filterUnits="objectBoundingBox">
      <feMorphology in="SourceAlpha" radius=".5" result="shadowSpreadOuter1"/>
      <feOffset dy="1" in="shadowSpreadOuter1" result="shadowOffsetOuter1"/>
      <feGaussianBlur in="shadowOffsetOuter1" result="shadowBlurOuter1" stdDeviation=".5"/>
      <feColorMatrix in="shadowBlurOuter1" values="0 0 0 0 0 0 0 0 0 0 0 0 0 0 0 0 0 0 0.198645105 0"/>
    </filter>
    <filter id="n" width="113.5%" height="142.9%" x="-6.7%" y="-10.7%" filterUnits="objectBoundingBox">
      <feMorphology in="SourceAlpha" radius=".5" result="shadowSpreadOuter1"/>
      <feOffset dy="1" in="shadowSpreadOuter1" result="shadowOffsetOuter1"/>
      <feGaussianBlur in="shadowOffsetOuter1" result="shadowBlurOuter1" stdDeviation=".5"/>
      <feColorMatrix in="shadowBlurOuter1" values="0 0 0 0 0 0 0 0 0 0 0 0 0 0 0 0 0 0 0.198645105 0"/>
    </filter>
    <filter id="p" width="113.5%" height="142.9%" x="-6.7%" y="-10.7%" filterUnits="objectBoundingBox">
      <feMorphology in="SourceAlpha" radius=".5" result="shadowSpreadOuter1"/>
      <feOffset dy="1" in="shadowSpreadOuter1" result="shadowOffsetOuter1"/>
      <feGaussianBlur in="shadowOffsetOuter1" result="shadowBlurOuter1" stdDeviation=".5"/>
      <feColorMatrix in="shadowBlurOuter1" values="0 0 0 0 0 0 0 0 0 0 0 0 0 0 0 0 0 0 0.198645105 0"/>
    </filter>
    <filter id="r" width="110.6%" height="130%" x="-5.3%" y="-7.5%" filterUnits="objectBoundingBox">
      <feMorphology in="SourceAlpha" radius=".5" result="shadowSpreadOuter1"/>
      <feOffset dy="1" in="shadowSpreadOuter1" result="shadowOffsetOuter1"/>
      <feGaussianBlur in="shadowOffsetOuter1" result="shadowBlurOuter1" stdDeviation=".5"/>
      <feColorMatrix in="shadowBlurOuter1" values="0 0 0 0 0 0 0 0 0 0 0 0 0 0 0 0 0 0 0.198645105 0"/>
    </filter>
    <filter id="t" width="110.6%" height="130%" x="-5.3%" y="-7.5%" filterUnits="objectBoundingBox">
      <feMorphology in="SourceAlpha" radius=".5" result="shadowSpreadOuter1"/>
      <feOffset dy="1" in="shadowSpreadOuter1" result="shadowOffsetOuter1"/>
      <feGaussianBlur in="shadowOffsetOuter1" result="shadowBlurOuter1" stdDeviation=".5"/>
      <feColorMatrix in="shadowBlurOuter1" values="0 0 0 0 0 0 0 0 0 0 0 0 0 0 0 0 0 0 0.198645105 0"/>
    </filter>
    <filter id="v" width="110.6%" height="130%" x="-5.3%" y="-7.5%" filterUnits="objectBoundingBox">
      <feMorphology in="SourceAlpha" radius=".5" result="shadowSpreadOuter1"/>
      <feOffset dy="1" in="shadowSpreadOuter1" result="shadowOffsetOuter1"/>
      <feGaussianBlur in="shadowOffsetOuter1" result="shadowBlurOuter1" stdDeviation=".5"/>
      <feColorMatrix in="shadowBlurOuter1" values="0 0 0 0 0 0 0 0 0 0 0 0 0 0 0 0 0 0 0.198645105 0"/>
    </filter>
    <filter id="x" width="110.6%" height="130%" x="-5.3%" y="-7.5%" filterUnits="objectBoundingBox">
      <feMorphology in="SourceAlpha" radius=".5" result="shadowSpreadOuter1"/>
      <feOffset dy="1" in="shadowSpreadOuter1" result="shadowOffsetOuter1"/>
      <feGaussianBlur in="shadowOffsetOuter1" result="shadowBlurOuter1" stdDeviation=".5"/>
      <feColorMatrix in="shadowBlurOuter1" values="0 0 0 0 0 0 0 0 0 0 0 0 0 0 0 0 0 0 0.198645105 0"/>
    </filter>
    <filter id="z" width="110.6%" height="130%" x="-5.3%" y="-7.5%" filterUnits="objectBoundingBox">
      <feMorphology in="SourceAlpha" radius=".5" result="shadowSpreadOuter1"/>
      <feOffset dy="1" in="shadowSpreadOuter1" result="shadowOffsetOuter1"/>
      <feGaussianBlur in="shadowOffsetOuter1" result="shadowBlurOuter1" stdDeviation=".5"/>
      <feColorMatrix in="shadowBlurOuter1" values="0 0 0 0 0 0 0 0 0 0 0 0 0 0 0 0 0 0 0.198645105 0"/>
    </filter>
    <filter id="B" width="110.6%" height="130%" x="-5.3%" y="-7.5%" filterUnits="objectBoundingBox">
      <feMorphology in="SourceAlpha" radius=".5" result="shadowSpreadOuter1"/>
      <feOffset dy="1" in="shadowSpreadOuter1" result="shadowOffsetOuter1"/>
      <feGaussianBlur in="shadowOffsetOuter1" result="shadowBlurOuter1" stdDeviation=".5"/>
      <feColorMatrix in="shadowBlurOuter1" values="0 0 0 0 0 0 0 0 0 0 0 0 0 0 0 0 0 0 0.198645105 0"/>
    </filter>
    <ellipse id="e" cx="5.388" cy="9" rx="4.041" ry="2.667"/>
    <ellipse id="g" cx="27.612" cy="9" rx="4.041" ry="2.667"/>
    <ellipse id="k" cx="5.388" cy="8.667" rx="4.041" ry="2.667"/>
    <ellipse id="m" cx="27.612" cy="8.667" rx="4.041" ry="2.667"/>
    <ellipse id="o" cx="6.398" cy="2.333" rx="3.704" ry="2.333"/>
    <ellipse id="q" cx="26.602" cy="2.333" rx="3.704" ry="2.333"/>
    <ellipse id="s" cx="16.5" cy="17.333" rx="4.714" ry="3.333"/>
    <ellipse id="u" cx="4.714" cy="17.333" rx="4.714" ry="3.333"/>
    <ellipse id="w" cx="28.286" cy="17.333" rx="4.714" ry="3.333"/>
    <ellipse id="y" cx="16.5" cy="16.667" rx="4.714" ry="3.333"/>
    <ellipse id="A" cx="4.714" cy="16.667" rx="4.714" ry="3.333"/>
    <ellipse id="C" cx="28.286" cy="16.667" rx="4.714" ry="3.333"/>
    <path id="c" d="M18.567 6.708c1.182.466 1.974 1.318 1.974 2.292 0 1.473-1.81 2.667-4.041 2.667-2.232 0-4.04-1.194-4.04-2.667 0-.974.79-1.826 1.972-2.291l1.12 2.043.06.09c.207.285.533.46.888.46.338 0 .68-.177.88-.446l.055-.083 1.132-2.065z"/>
    <path id="i" d="M18.717 6.437c1.099.477 1.824 1.297 1.824 2.23 0 1.472-1.81 2.666-4.041 2.666-2.232 0-4.04-1.194-4.04-2.666 0-.933.724-1.753 1.823-2.23l1.27 2.315.058.09c.208.285.534.46.889.46.338 0 .68-.177.88-.446l.055-.083 1.282-2.336z"/>
    <linearGradient id="D" x1="66.28%" x2="39.381%" y1="0%" y2="97.471%">
      <stop offset="0%" stop-color="#375D9B"/>
      <stop offset="47.631%" stop-color="#547BBA"/>
      <stop offset="100%" stop-color="#7298D5"/>
    </linearGradient>
    <circle id="a" cx="36" cy="36" r="36"/>
  </defs>
  <g fill="none" fill-rule="evenodd">
    <g fill-rule="nonzero">
      <use fill="#FFF" xlink:href="#a"/>
      <use fill="#547BBA" fill-opacity=".1" xlink:href="#a"/>
    </g>
    <g transform="translate(20 26.333)">
      <use fill="#000" filter="url(#b)" xlink:href="#c"/>
      <use fill="#547BBA" xlink:href="#c"/>
      <use fill="#000" fill-opacity=".208" xlink:href="#c"/>
    </g>
    <g transform="translate(20 26.333)">
      <use fill="#000" filter="url(#d)" xlink:href="#e"/>
      <use fill="#547BBA" xlink:href="#e"/>
      <use fill="#000" fill-opacity=".208" xlink:href="#e"/>
    </g>
    <g transform="translate(20 26.333)">
      <use fill="#000" filter="url(#f)" xlink:href="#g"/>
      <use fill="#547BBA" xlink:href="#g"/>
      <use fill="#000" fill-opacity=".208" xlink:href="#g"/>
    </g>
    <g transform="translate(20 26.333)">
      <use fill="#000" filter="url(#h)" xlink:href="#i"/>
      <use fill="#7796C8" xlink:href="#i"/>
    </g>
    <g transform="translate(20 26.333)">
      <use fill="#000" filter="url(#j)" xlink:href="#k"/>
      <use fill="#7796C8" xlink:href="#k"/>
    </g>
    <g transform="translate(20 26.333)">
      <use fill="#000" filter="url(#l)" xlink:href="#m"/>
      <use fill="#7796C8" xlink:href="#m"/>
    </g>
    <g transform="translate(20 26.333)">
      <use fill="#000" filter="url(#n)" xlink:href="#o"/>
      <use fill="#8FA7CC" xlink:href="#o"/>
    </g>
    <g transform="translate(20 26.333)">
      <use fill="#000" filter="url(#p)" xlink:href="#q"/>
      <use fill="#8FA7CC" xlink:href="#q"/>
    </g>
    <g transform="translate(20 26.333)">
      <use fill="#000" filter="url(#r)" xlink:href="#s"/>
      <use fill="#547BBA" xlink:href="#s"/>
      <use fill="#000" fill-opacity=".296" xlink:href="#s"/>
    </g>
    <g transform="translate(20 26.333)">
      <use fill="#000" filter="url(#t)" xlink:href="#u"/>
      <use fill="#547BBA" xlink:href="#u"/>
      <use fill="#000" fill-opacity=".296" xlink:href="#u"/>
    </g>
    <g transform="translate(20 26.333)">
      <use fill="#000" filter="url(#v)" xlink:href="#w"/>
      <use fill="#547BBA" xlink:href="#w"/>
      <use fill="#000" fill-opacity=".296" xlink:href="#w"/>
    </g>
    <g transform="translate(20 26.333)">
      <use fill="#000" filter="url(#x)" xlink:href="#y"/>
      <use fill="#547BBA" xlink:href="#y"/>
    </g>
    <g transform="translate(20 26.333)">
      <use fill="#000" filter="url(#z)" xlink:href="#A"/>
      <use fill="#547BBA" xlink:href="#A"/>
    </g>
    <g transform="translate(20 26.333)">
      <use fill="#000" filter="url(#B)" xlink:href="#C"/>
      <use fill="#547BBA" xlink:href="#C"/>
    </g>
    <path fill="url(#D)" d="M16.5 0c3.532 0 6.398 2.882 6.398 6.434 0 1.14-.311 2.234-.822 3.15l-5.22 9.517a.452.452 0 01-.356.2.42.42 0 01-.355-.2l-5.221-9.517c-.533-.916-.822-2.01-.822-3.15C10.102 2.882 12.968 0 16.5 0zm0 8.847c1.333 0 2.4-1.073 2.4-2.413a2.396 2.396 0 00-2.4-2.413 2.396 2.396 0 00-2.4 2.413 2.396 2.396 0 002.4 2.413z" transform="translate(20 15.667)"/>
  </g>
</svg>
