<?xml version="1.0" encoding="UTF-8"?>
<svg width="72px" height="72px" viewBox="0 0 72 72" version="1.1" xmlns="http://www.w3.org/2000/svg" xmlns:xlink="http://www.w3.org/1999/xlink">
    <!-- Generator: Sketch 59 (86127) - https://sketch.com -->
    <title>cat_11</title>
    <desc>Created with Sketch.</desc>
    <defs>
        <circle id="path-1" cx="36" cy="36" r="36"></circle>
        <linearGradient x1="50%" y1="27.7777778%" x2="25.5016421%" y2="72.2222222%" id="linearGradient-2">
            <stop stop-color="#648CCE" offset="0%"></stop>
            <stop stop-color="#547BBA" offset="51.8924198%"></stop>
            <stop stop-color="#446BAB" offset="100%"></stop>
        </linearGradient>
        <path d="M11.998191,6.15837546 L11.998191,6.15837546 C11.9204038,6.16000585 11.8581626,6.22655152 11.8581781,6.30807083 L11.8581781,9.47382852 L11.8581781,9.47382852 C11.8581781,9.66001124 11.7141281,9.81094249 11.5364339,9.81094249 L2.4647358,9.81094249 L2.46473579,9.81094249 C2.2870416,9.81094248 2.14299168,9.66001124 2.14299168,9.47382852 L2.14299168,6.30627449 L2.14299168,6.30624455 C2.14299168,6.22472524 2.08073734,6.15819283 2.00295013,6.15657852 L2.00294996,6.15657851 C1.72567397,6.15032993 1.45090622,6.10005953 1.18801727,6.00748192 L1.18801727,6.00748192 C1.11271886,5.98168726 1.03171993,6.02473396 1.00710164,6.10362946 C1.00243075,6.11859834 1,6.13424336 1,6.14999192 L1,11.3408286 L1,11.3408243 C1.00190704,11.9195424 1.45120697,12.3870632 2.00353875,12.3850693 C2.0501941,12.3849005 2.09678111,12.3813112 2.14295796,12.3743276 L5.23699337,12.3743276 L5.23699336,12.3743276 C5.2794054,12.3742606 5.3196353,12.3940193 5.34671782,12.4282179 L6.3416672,13.6784736 L6.34166713,13.6784735 C6.64563131,14.0587764 7.18628258,14.1088896 7.54924765,13.790405 C7.5879317,13.7564614 7.6236797,13.7190057 7.65607584,13.6784735 L8.65674004,12.4282178 L8.65674004,12.4282178 C8.68382243,12.3940192 8.72405256,12.3742605 8.76646449,12.3743275 L11.8570367,12.3743275 L11.8570367,12.3743275 C12.4037068,12.4570054 12.9108373,12.0596954 12.9897474,11.4869094 C12.9964128,11.4385264 12.9998386,11.389714 13,11.34083 L13,6.15119096 L13,6.15119328 C13,6.06851892 12.9361203,6.00145779 12.8572153,6.00140869 C12.8416406,6.00139893 12.8261692,6.00405754 12.8114134,6.00927925 L12.8114134,6.00927925 C12.5490971,6.10178619 12.2749037,6.15205749 11.9981952,6.15837643 L11.998191,6.15837546 Z" id="path-3"></path>
        <linearGradient x1="87.7508211%" y1="52.2498492%" x2="17.5955636%" y2="43.2736767%" id="linearGradient-4">
            <stop stop-color="#8BAADB" offset="0%"></stop>
            <stop stop-color="#7796C9" offset="51.8924198%"></stop>
            <stop stop-color="#6B8ABD" offset="100%"></stop>
        </linearGradient>
        <path d="M0,3.06743544 L0,3.59622358 L0,3.59622412 C0.0172776949,4.34069848 0.471695811,5.00552304 1.1602508,5.29369803 L1.16025085,5.29369805 C1.78017084,5.56604896 2.49652166,5.50465369 3.06075082,5.13081502 L3.06075082,5.13081502 C3.11897338,5.09409071 3.19499215,5.10281001 3.24333415,5.15175712 L3.24333388,5.15175684 C3.78053662,5.69393746 4.51310469,5.99898131 5.27741718,5.99874862 L5.27741716,5.99874862 C5.86653715,6.00137266 6.44027464,5.81133482 6.91075047,5.45774426 L6.91075046,5.45774426 C6.9626666,5.41915541 7.03383437,5.41915541 7.08575046,5.45774426 L7.08575035,5.45774418 C7.62288193,5.85904609 8.28970366,6.04839296 8.95825032,5.98944094 L8.95825023,5.98944095 C9.64002688,5.9388998 10.2797044,5.64135816 10.7566669,5.15292022 L10.7566669,5.15292022 C10.8049067,5.10350139 10.8811654,5.09429804 10.9398335,5.13081467 L10.9398335,5.13081468 C11.5019639,5.50621819 12.2174619,5.56918935 12.8368335,5.29776979 L12.8368333,5.29776986 C13.5231892,5.00420228 13.9768067,4.34062843 14,3.59622387 L14,3.06743574 L14,3.06743659 C13.9996308,3.02742059 13.9913035,2.98787521 13.9755004,2.95109157 L13.535667,1.90398634 L12.9704165,0.561946486 L12.9704164,0.561946469 C12.8449199,0.232888999 12.5334292,0.0112709243 12.1805831,0 L1.81941665,0 L1.81941663,0 C1.46657114,0.0112708085 1.15508165,0.232889 1.02958332,0.561946469 L0.46666666,1.90398633 L0.0268333345,2.95109155 L0.0268333328,2.95109155 C0.0102275831,2.98771057 0.00110553331,3.02726264 0,3.06743658 L0,3.06743544 Z" id="path-5"></path>
        <linearGradient x1="50%" y1="29.3367347%" x2="25.5016421%" y2="70.6632653%" id="linearGradient-6">
            <stop stop-color="#8BAADB" offset="0%"></stop>
            <stop stop-color="#7796C9" offset="51.8924198%"></stop>
            <stop stop-color="#6B8ABD" offset="100%"></stop>
        </linearGradient>
        <path d="M6.91561144,3.5890862 L6.91561144,3.5890862 C6.87023557,3.59000329 6.8339282,3.62743523 6.8339372,3.67328984 L6.8339372,5.45402854 L6.8339372,5.45402854 C6.8339372,5.55875632 6.74990808,5.64365515 6.64625314,5.64365515 L1.35442922,5.64365515 L1.35442921,5.64365515 C1.25077427,5.64365515 1.16674515,5.55875632 1.16674515,5.45402854 L1.16674515,3.6722794 L1.16674515,3.67226256 C1.16674515,3.62640795 1.13043011,3.58898347 1.08505424,3.58807541 L1.08505415,3.58807541 C0.923309818,3.58456058 0.763028625,3.55628348 0.609676742,3.50420858 L0.609676743,3.50420858 C0.56575267,3.48969908 0.51850329,3.51391285 0.504142626,3.55829157 C0.501417936,3.56671157 0.5,3.57551189 0.5,3.58437045 L0.5,6.50421607 L0.5,6.50421368 C0.50111244,6.82974261 0.763204067,7.09272306 1.0853976,7.09160147 C1.11261323,7.09150653 1.13978898,7.08948753 1.16672548,7.08555925 L2.97157946,7.08555925 L2.97157946,7.08555925 C2.99631982,7.08552159 3.01978726,7.09663584 3.03558539,7.11587256 L3.61597253,7.81914141 L3.61597249,7.81914137 C3.79328493,8.03306174 4.10866484,8.06125042 4.32039446,7.88210279 C4.34296016,7.86300955 4.36381316,7.84194068 4.38271091,7.81914137 L4.96643169,7.11587252 L4.96643169,7.11587252 C4.98222975,7.09663579 5.00569733,7.08552155 5.03043762,7.08555921 L6.83327142,7.08555921 L6.83327141,7.08555921 C7.15216231,7.13206555 7.4479884,6.90857864 7.49401933,6.58638652 C7.49790746,6.5591711 7.49990588,6.53171411 7.5,6.5042169 L7.5,3.58504491 L7.5,3.58504622 C7.5,3.53854189 7.46273686,3.50082001 7.41670893,3.50079239 C7.40762369,3.5007869 7.39859872,3.50228236 7.38999115,3.50521958 L7.38999116,3.50521958 C7.23697331,3.55725473 7.07702715,3.58553234 6.91561385,3.58908674 L6.91561144,3.5890862 Z" id="path-7"></path>
        <linearGradient x1="87.7508211%" y1="52.3445694%" x2="17.5955636%" y2="42.9904938%" id="linearGradient-8">
            <stop stop-color="#8BAADB" offset="0%"></stop>
            <stop stop-color="#7796C9" offset="51.8924198%"></stop>
            <stop stop-color="#6B8ABD" offset="100%"></stop>
        </linearGradient>
        <path d="M0,1.78933734 L0,2.09779709 L0,2.0977974 C0.00987296853,2.53207411 0.269540464,2.91988844 0.663000456,3.08799052 L0.663000488,3.08799053 C1.01724048,3.24686189 1.42658381,3.21104799 1.74900047,2.99297543 L1.74900047,2.99297543 C1.7822705,2.97155291 1.8257098,2.97663917 1.8533338,3.00519165 L1.85333365,3.00519149 C2.16030664,3.32146352 2.57891697,3.49940577 3.01566696,3.49927003 L3.01566695,3.49927003 C3.35230694,3.50080072 3.68015694,3.38994531 3.94900027,3.18368415 L3.94900026,3.18368415 C3.97866663,3.16117399 4.01933393,3.16117399 4.04900026,3.18368415 L4.0490002,3.1836841 C4.35593253,3.41777689 4.73697352,3.52822923 5.11900018,3.49384055 L5.11900013,3.49384055 C5.50858679,3.46435821 5.87411678,3.29079226 6.14666678,3.00587013 L6.14666678,3.00587013 C6.17423238,2.97704248 6.21780877,2.97167385 6.25133344,2.99297522 L6.25133345,2.99297523 C6.57255078,3.21196061 6.98140677,3.24869379 7.33533343,3.09036571 L7.33533334,3.09036575 C7.72753667,2.91911799 7.98674666,2.53203325 8,2.09779726 L8,1.78933751 L8,1.78933801 C7.99978904,1.76599535 7.99503057,1.74292721 7.9860002,1.72147008 L7.73466687,1.1106587 L7.41166654,0.327802117 L7.41166654,0.327802107 C7.33995421,0.135851916 7.16195955,0.00657470582 6.96033322,0 L1.03966666,0 L1.03966665,0 C0.838040652,0.00657463832 0.660046655,0.135851917 0.588333323,0.327802107 L0.266666663,1.11065869 L0.015333334,1.72147007 L0.015333333,1.72147007 C0.00584433322,1.74283116 0.000631733322,1.76590321 0,1.789338 L0,1.78933734 Z" id="path-9"></path>
        <linearGradient x1="50%" y1="30.46875%" x2="25.5016421%" y2="69.53125%" id="linearGradient-10">
            <stop stop-color="#648CCE" offset="0%"></stop>
            <stop stop-color="#547BBA" offset="51.8924198%"></stop>
            <stop stop-color="#446BAB" offset="100%"></stop>
        </linearGradient>
        <path d="M7.83212736,4.09898466 L7.83212736,4.09898466 C7.78026922,4.10000365 7.73877509,4.1415947 7.73878537,4.19254427 L7.73878537,6.17114282 L7.73878537,6.17114282 C7.73878537,6.28750702 7.64275209,6.38183906 7.5242893,6.38183906 L1.47649054,6.38183906 L1.47649053,6.38183906 C1.35802774,6.38183905 1.26199445,6.28750702 1.26199445,6.17114282 L1.26199445,4.19142155 L1.26199445,4.19140284 C1.26199445,4.14045327 1.22049156,4.09887052 1.16863342,4.09786157 L1.16863331,4.09786157 C0.983782649,4.0939562 0.800604143,4.0625372 0.625344848,4.0046762 L0.625344849,4.0046762 C0.575145909,3.98855453 0.521146617,4.01545872 0.504734429,4.06476841 C0.501620499,4.07412396 0.5,4.0839021 0.5,4.09374495 L0.5,7.33801785 L0.5,7.3380152 C0.50127136,7.69971401 0.800804648,7.99191451 1.16902583,7.9906683 C1.2001294,7.99056281 1.2311874,7.98831948 1.26197197,7.98395472 L3.32466224,7.98395472 L3.32466224,7.98395472 C3.35293694,7.98391288 3.37975687,7.99626204 3.39781188,8.01763618 L4.06111146,8.79904601 L4.06111142,8.79904596 C4.26375421,9.03673526 4.62418838,9.06805603 4.8661651,8.8690031 C4.89195446,8.84778838 4.91578646,8.82437854 4.93738389,8.79904596 L5.60449336,8.01763613 L5.60449336,8.01763613 C5.62254829,7.99626199 5.64936837,7.98391284 5.677643,7.98395468 L7.73802448,7.98395468 L7.73802447,7.98395467 C8.10247121,8.03562839 8.44055817,7.7873096 8.49316495,7.42931836 C8.49760852,7.39907899 8.49989243,7.36857123 8.5,7.33801878 L8.5,4.09449435 L8.5,4.0944958 C8.5,4.04282432 8.45741356,4.00091112 8.40481021,4.00088043 C8.39442707,4.00087433 8.38411282,4.00253596 8.3742756,4.00579953 L8.37427561,4.00579953 C8.19939807,4.06361637 8.01660245,4.09503593 7.83213012,4.09898527 L7.83212736,4.09898466 Z" id="path-11"></path>
        <linearGradient x1="87.7508211%" y1="52.4195909%" x2="17.5955636%" y2="42.7662037%" id="linearGradient-12">
            <stop stop-color="#8BAADB" offset="0%"></stop>
            <stop stop-color="#7796C9" offset="51.8924198%"></stop>
            <stop stop-color="#6B8ABD" offset="100%"></stop>
        </linearGradient>
        <path d="M0,2.04495696 L0,2.39748239 L0,2.39748275 C0.0111070896,2.89379899 0.303233022,3.33701536 0.745875513,3.52913202 L0.745875548,3.52913204 C1.14439554,3.71069931 1.60490678,3.66976913 1.96762553,3.42054335 L1.96762553,3.42054334 C2.00505432,3.39606047 2.05392353,3.40187334 2.08500053,3.43450475 L2.08500035,3.43450456 C2.43034497,3.7959583 2.90128159,3.99932088 3.39262533,3.99916575 L3.39262532,3.99916575 C3.77134531,4.00091511 4.14017655,3.87422322 4.4426253,3.63849617 L4.4426253,3.63849618 C4.47599996,3.61277027 4.52175067,3.61277027 4.55512529,3.63849617 L4.55512523,3.63849612 C4.9004241,3.90603073 5.32909521,4.03226198 5.7588752,3.99296063 L5.75887515,3.99296063 C6.19716014,3.95926653 6.60838138,3.76090544 6.91500012,3.43528015 L6.91500012,3.43528015 C6.94601142,3.40233426 6.99503487,3.39619869 7.03275012,3.42054311 L7.03275013,3.42054312 C7.39411963,3.67081213 7.85408262,3.7127929 8.25225011,3.53184653 L8.25225001,3.53184657 C8.69347875,3.33613485 8.98509,2.89375229 9,2.39748258 L9,2.04495716 L9,2.04495773 C8.99976267,2.01828039 8.99440939,1.99191681 8.98425023,1.96739438 L8.70150023,1.26932423 L8.33812486,0.374630991 L8.33812486,0.374630979 C8.25744848,0.155259333 8.05720449,0.0075139495 7.83037487,0 L1.16962499,0 L1.16962498,0 C0.942795733,0.00751387236 0.742552487,0.155259333 0.661874989,0.37463098 L0.299999995,1.26932422 L0.0172500008,1.96739437 L0.0172499997,1.96739437 C0.00657487488,1.99180704 0.000710699987,2.01817509 0,2.04495772 L0,2.04495696 Z" id="path-13"></path>
        <path d="M7.83212736,4.09898466 L7.83212736,4.09898466 C7.78026922,4.10000365 7.73877509,4.1415947 7.73878537,4.19254427 L7.73878537,6.17114282 L7.73878537,6.17114282 C7.73878537,6.28750702 7.64275209,6.38183906 7.5242893,6.38183906 L1.47649054,6.38183906 L1.47649053,6.38183906 C1.35802774,6.38183905 1.26199445,6.28750702 1.26199445,6.17114282 L1.26199445,4.19142155 L1.26199445,4.19140284 C1.26199445,4.14045327 1.22049156,4.09887052 1.16863342,4.09786157 L1.16863331,4.09786157 C0.983782649,4.0939562 0.800604143,4.0625372 0.625344848,4.0046762 L0.625344849,4.0046762 C0.575145909,3.98855453 0.521146617,4.01545872 0.504734429,4.06476841 C0.501620499,4.07412396 0.5,4.0839021 0.5,4.09374495 L0.5,7.33801785 L0.5,7.3380152 C0.50127136,7.69971401 0.800804648,7.99191451 1.16902583,7.9906683 C1.2001294,7.99056281 1.2311874,7.98831948 1.26197197,7.98395472 L3.32466224,7.98395472 L3.32466224,7.98395472 C3.35293694,7.98391288 3.37975687,7.99626204 3.39781188,8.01763618 L4.06111146,8.79904601 L4.06111142,8.79904596 C4.26375421,9.03673526 4.62418838,9.06805603 4.8661651,8.8690031 C4.89195446,8.84778838 4.91578646,8.82437854 4.93738389,8.79904596 L5.60449336,8.01763613 L5.60449336,8.01763613 C5.62254829,7.99626199 5.64936837,7.98391284 5.677643,7.98395468 L7.73802448,7.98395468 L7.73802447,7.98395467 C8.10247121,8.03562839 8.44055817,7.7873096 8.49316495,7.42931836 C8.49760852,7.39907899 8.49989243,7.36857123 8.5,7.33801878 L8.5,4.09449435 L8.5,4.0944958 C8.5,4.04282432 8.45741356,4.00091112 8.40481021,4.00088043 C8.39442707,4.00087433 8.38411282,4.00253596 8.3742756,4.00579953 L8.37427561,4.00579953 C8.19939807,4.06361637 8.01660245,4.09503593 7.83213012,4.09898527 L7.83212736,4.09898466 Z" id="path-14"></path>
        <path d="M0,2.04495696 L0,2.39748239 L0,2.39748275 C0.0111070896,2.89379899 0.303233022,3.33701536 0.745875513,3.52913202 L0.745875548,3.52913204 C1.14439554,3.71069931 1.60490678,3.66976913 1.96762553,3.42054335 L1.96762553,3.42054334 C2.00505432,3.39606047 2.05392353,3.40187334 2.08500053,3.43450475 L2.08500035,3.43450456 C2.43034497,3.7959583 2.90128159,3.99932088 3.39262533,3.99916575 L3.39262532,3.99916575 C3.77134531,4.00091511 4.14017655,3.87422322 4.4426253,3.63849617 L4.4426253,3.63849618 C4.47599996,3.61277027 4.52175067,3.61277027 4.55512529,3.63849617 L4.55512523,3.63849612 C4.9004241,3.90603073 5.32909521,4.03226198 5.7588752,3.99296063 L5.75887515,3.99296063 C6.19716014,3.95926653 6.60838138,3.76090544 6.91500012,3.43528015 L6.91500012,3.43528015 C6.94601142,3.40233426 6.99503487,3.39619869 7.03275012,3.42054311 L7.03275013,3.42054312 C7.39411963,3.67081213 7.85408262,3.7127929 8.25225011,3.53184653 L8.25225001,3.53184657 C8.69347875,3.33613485 8.98509,2.89375229 9,2.39748258 L9,2.04495716 L9,2.04495773 C8.99976267,2.01828039 8.99440939,1.99191681 8.98425023,1.96739438 L8.70150023,1.26932423 L8.33812486,0.374630991 L8.33812486,0.374630979 C8.25744848,0.155259333 8.05720449,0.0075139495 7.83037487,0 L1.16962499,0 L1.16962498,0 C0.942795733,0.00751387236 0.742552487,0.155259333 0.661874989,0.37463098 L0.299999995,1.26932422 L0.0172500008,1.96739437 L0.0172499997,1.96739437 C0.00657487488,1.99180704 0.000710699987,2.01817509 0,2.04495772 L0,2.04495696 Z" id="path-15"></path>
    </defs>
    <g id="Support" stroke="none" stroke-width="1" fill="none" fill-rule="evenodd">
        <g id="Support-cat-icons" transform="translate(-983.000000, -1296.000000)">
            <g id="Group-10" transform="translate(134.000000, 592.000000)">
                <g id="cat_11" transform="translate(849.000000, 704.000000)">
                    <g id="Molecules-/-Cards-/-Feature-Grid-Block">
                        <g id="Atoms-/-Icons-/-Backgrounds-/-Colours" fill-rule="nonzero">
                            <use fill="#FFFFFF" xlink:href="#path-1"></use>
                            <use fill-opacity="0.1" fill="#547BBA" xlink:href="#path-1"></use>
                        </g>
                        <g id="Atoms-/-Icons-/-multi-location" transform="translate(20.000000, 20.000000)">
                            <g id="shop-pin" transform="translate(9.000000, 17.000000)">
                                <g id="Path" fill-rule="nonzero">
                                    <use fill="#FFFFFF" xlink:href="#path-3"></use>
                                    <use fill="url(#linearGradient-2)" xlink:href="#path-3"></use>
                                </g>
                                <g id="Path" fill-rule="nonzero">
                                    <use fill="#FFFFFF" xlink:href="#path-5"></use>
                                    <use fill="url(#linearGradient-4)" xlink:href="#path-5"></use>
                                </g>
                            </g>
                            <g id="shop-pin-copy" transform="translate(12.000000, 0.500000)">
                                <g id="Path" fill-rule="nonzero">
                                    <use fill="#FFFFFF" xlink:href="#path-7"></use>
                                    <use fill-opacity="0.8" fill="url(#linearGradient-6)" xlink:href="#path-7"></use>
                                </g>
                                <g id="Path" fill-rule="nonzero">
                                    <use fill="#FFFFFF" xlink:href="#path-9"></use>
                                    <use fill="url(#linearGradient-8)" xlink:href="#path-9"></use>
                                </g>
                            </g>
                            <g id="shop-pin-copy-2" transform="translate(0.000000, 9.000000)">
                                <g id="Path" fill-rule="nonzero">
                                    <use fill="#FFFFFF" xlink:href="#path-11"></use>
                                    <use fill="url(#linearGradient-10)" xlink:href="#path-11"></use>
                                </g>
                                <g id="Path" fill-rule="nonzero">
                                    <use fill="#FFFFFF" xlink:href="#path-13"></use>
                                    <use fill="url(#linearGradient-12)" xlink:href="#path-13"></use>
                                </g>
                            </g>
                            <g id="shop-pin-copy-3" transform="translate(23.000000, 9.000000)">
                                <g id="Path" fill-rule="nonzero">
                                    <use fill="#FFFFFF" xlink:href="#path-14"></use>
                                    <use fill="url(#linearGradient-10)" xlink:href="#path-14"></use>
                                </g>
                                <g id="Path" fill-rule="nonzero">
                                    <use fill="#FFFFFF" xlink:href="#path-15"></use>
                                    <use fill="url(#linearGradient-12)" xlink:href="#path-15"></use>
                                </g>
                            </g>
                        </g>
                    </g>
                </g>
            </g>
        </g>
    </g>
</svg>