<?xml version="1.0" encoding="UTF-8"?>
<svg width="72px" height="72px" viewBox="0 0 72 72" version="1.1" xmlns="http://www.w3.org/2000/svg" xmlns:xlink="http://www.w3.org/1999/xlink">
    <!-- Generator: Sketch 59 (86127) - https://sketch.com -->
    <title>cat_05</title>
    <desc>Created with Sketch.</desc>
    <defs>
        <circle id="path-1" cx="36" cy="36" r="36"></circle>
        <path d="M4.5,6.5 C6.984375,6.5 9,8.515625 9,11 C9,11.796875 8.78125,12.5625 8.421875,13.203125 L4.75,19.859375 C4.703125,19.9375 4.59375,20 4.5,20 C4.390625,20 4.296875,19.9375 4.25,19.859375 L0.578125,13.203125 C0.203125,12.5625 0,11.796875 0,11 C0,8.515625 2.015625,6.5 4.5,6.5 Z M4.5,12.6875 C5.4375,12.6875 6.1875,11.9375 6.1875,11 C6.1875,10.0625 5.4375,9.3125 4.5,9.3125 C3.5625,9.3125 2.8125,10.0625 2.8125,11 C2.8125,11.9375 3.5625,12.6875 4.5,12.6875 Z" id="path-2"></path>
        <path d="M15,0 C17.2083333,0 19,1.79166667 19,4 C19,4.70833333 18.8055556,5.38888889 18.4861111,5.95833333 L15.2222222,11.875 C15.1805556,11.9444444 15.0833333,12 15,12 C14.9027778,12 14.8194444,11.9444444 14.7777778,11.875 L11.5138889,5.95833333 C11.1805556,5.38888889 11,4.70833333 11,4 C11,1.79166667 12.7916667,0 15,0 Z M15,5.5 C15.8333333,5.5 16.5,4.83333333 16.5,4 C16.5,3.16666667 15.8333333,2.5 15,2.5 C14.1666667,2.5 13.5,3.16666667 13.5,4 C13.5,4.83333333 14.1666667,5.5 15,5.5 Z" id="path-3"></path>
    </defs>
    <g id="Support" stroke="none" stroke-width="1" fill="none" fill-rule="evenodd">
        <g id="Support-cat-icons" transform="translate(-134.000000, -944.000000)">
            <g id="Group-10" transform="translate(134.000000, 592.000000)">
                <g id="cat_05" transform="translate(0.000000, 352.000000)">
                    <g id="Molecules-/-Cards-/-Feature-Grid-Block">
                        <g id="Atoms-/-Icons-/-Backgrounds-/-Colours" fill-rule="nonzero">
                            <use fill="#FFFFFF" xlink:href="#path-1"></use>
                            <use fill-opacity="0.0965806159" fill="#C15790" xlink:href="#path-1"></use>
                        </g>
                        <g id="Atoms-/-Icons-/-Citation-Builder-64" transform="translate(20.000000, 20.000000)">
                            <g id="Atoms-/-Icons-/-Citation-Builder" transform="translate(0.500000, 1.500000)">
                                <path d="M15,14.5 C17.7604167,14.5 20,16.7395833 20,19.5 C20,20.3854167 19.7569444,21.2361111 19.3576389,21.9479167 L15.2777778,29.34375 C15.2256944,29.4305556 15.1041667,29.5 15,29.5 C14.8784722,29.5 14.7743056,29.4305556 14.7222222,29.34375 L10.6423611,21.9479167 C10.2256944,21.2361111 10,20.3854167 10,19.5 C10,16.7395833 12.2395833,14.5 15,14.5 Z M15,21.375 C16.0416667,21.375 16.875,20.5416667 16.875,19.5 C16.875,18.4583333 16.0416667,17.625 15,17.625 C13.9583333,17.625 13.125,18.4583333 13.125,19.5 C13.125,20.5416667 13.9583333,21.375 15,21.375 Z" id="" fill="#C15790"></path>
                                <path d="M26.5,6.5 C28.984375,6.5 31,8.515625 31,11 C31,11.796875 30.78125,12.5625 30.421875,13.203125 L26.75,19.859375 C26.703125,19.9375 26.59375,20 26.5,20 C26.390625,20 26.296875,19.9375 26.25,19.859375 L22.578125,13.203125 C22.203125,12.5625 22,11.796875 22,11 C22,8.515625 24.015625,6.5 26.5,6.5 Z M26.5,12.6875 C27.4375,12.6875 28.1875,11.9375 28.1875,11 C28.1875,10.0625 27.4375,9.3125 26.5,9.3125 C25.5625,9.3125 24.8125,10.0625 24.8125,11 C24.8125,11.9375 25.5625,12.6875 26.5,12.6875 Z" id="-copy-2" fill="#C15790"></path>
                                <g id="-copy-3">
                                    <use fill="#FFFFFF" xlink:href="#path-2"></use>
                                    <use fill-opacity="0.802960824" fill="#C15790" xlink:href="#path-2"></use>
                                </g>
                                <g id="-copy">
                                    <use fill="#FFFFFF" xlink:href="#path-3"></use>
                                    <use fill-opacity="0.595306839" fill="#C15790" xlink:href="#path-3"></use>
                                </g>
                            </g>
                        </g>
                    </g>
                </g>
            </g>
        </g>
    </g>
</svg>