<?xml version="1.0" encoding="UTF-8"?>
<svg width="72px" height="72px" viewBox="0 0 72 72" version="1.1" xmlns="http://www.w3.org/2000/svg" xmlns:xlink="http://www.w3.org/1999/xlink">
    <title>cat_03</title>
    <g id="Page-1" stroke="none" stroke-width="1" fill="none" fill-rule="evenodd">
        <g id="cat_03" fill-rule="nonzero">
            <g id="Atoms-/-Icons-/-Backgrounds-/-Colours">
                <g id="path-1-link" fill="#FFFFFF">
                    <circle id="path-1" cx="36" cy="36" r="36"></circle>
                </g>
                <g id="path-1-link" fill="#549FBA" fill-opacity="0.0972882699">
                    <circle id="path-1" cx="36" cy="36" r="36"></circle>
                </g>
            </g>
            <g id="as" transform="translate(15.000000, 18.000000)" fill="#363987">
                <path d="M23.9477205,23.17317 L18.008109,23.17317 L17.0561935,26 L13,26 L18.7563556,10 L23.2436444,10 L29,26 L24.8982521,26 L23.9464519,23.17317 L23.9477205,23.17317 Z M22.9503658,20.1645898 L20.9784914,14.3076441 L19.0293365,20.1645898 L22.9503658,20.1645898 Z" id="Shape"></path>
                <path d="M31,34.5510814 C28.1886902,36.1081571 24.9259326,37 21.4502059,37 C14.3925019,37 8.21714549,33.3259948 4.90951227,27.8744623 C3.28069613,25.1891254 2.34573816,22.0725791 2.34573816,18.752574 L0,18.752574 L4.78253819,12 L8.6570555,18.752574 L6.19331839,18.752574 C6.19331839,21.4048374 6.93975185,23.892988 8.24023275,26.0368324 C10.8809566,30.3907823 15.8135444,33.3248544 21.4502059,33.3248544 C24.2255918,33.3248544 26.8317725,32.6130907 29.0761397,31.3696427 L31,34.5510814 Z" id="Path"></path>
                <path d="M43,18.2483417 L38.2162466,25 L34.3420513,18.2483417 L36.8115875,18.2483417 C36.8115875,15.5959452 36.0649563,13.1076698 34.7641162,10.9637063 C32.1227577,6.60958357 27.1889524,3.6753985 21.5521738,3.6753985 C18.7748089,3.6753985 16.1692662,4.38719788 13.9230522,5.62947655 L12,2.44780974 C14.8120103,0.890670763 18.0742935,0 21.5521738,0 C28.6090616,0 34.7872912,3.67416674 38.0956901,9.12600708 C39.7249589,11.8114673 40.6601499,14.928284 40.6601499,18.2483417 L43,18.2483417 Z" id="Path"></path>
            </g>
        </g>
    </g>
</svg>