<svg width="72" height="72" viewBox="0 0 72 72" fill="none" xmlns="http://www.w3.org/2000/svg">
<rect width="72" height="72" rx="36" fill="#EEF5F8"/>
<path fill-rule="evenodd" clip-rule="evenodd" d="M46.5372 19C44.9853 19 43.7273 20.258 43.7273 21.8099V23.6364L43.7272 26.7273L43.7273 50.1901C43.7273 51.742 44.9853 53 46.5372 53H50.1901C51.742 53 53 51.742 53 50.1901V21.8099C53 20.258 51.742 19 50.1901 19H46.5372ZM43.7272 26.7273H52.9999V23.6364H43.7273L43.7272 26.7273Z" fill="#363987"/>
<path fill-rule="evenodd" clip-rule="evenodd" d="M34.1736 28.2727C32.6217 28.2727 31.3636 29.5308 31.3636 31.0826V32.9091L31.3636 36L31.3636 50.1901C31.3636 51.742 32.6217 53 34.1736 53H37.8264C39.3783 53 40.6364 51.742 40.6364 50.1901V31.0826C40.6364 29.5308 39.3783 28.2727 37.8264 28.2727H34.1736ZM31.3636 36H40.6363V32.9091H31.3636L31.3636 36Z" fill="#363987"/>
<path d="M19 38.8099C19 37.258 20.258 36 21.8099 36H25.4628C27.0147 36 28.2727 37.258 28.2727 38.8099V40.6364H19V38.8099Z" fill="#363987"/>
<path d="M19 43.7273H28.2727V50.1901C28.2727 51.742 27.0147 53 25.4628 53H21.8099C20.258 53 19 51.742 19 50.1901V43.7273Z" fill="#363987"/>
</svg>
