<?xml version="1.0" encoding="UTF-8"?>
<svg width="72px" height="72px" viewBox="0 0 72 72" version="1.1" xmlns="http://www.w3.org/2000/svg" xmlns:xlink="http://www.w3.org/1999/xlink">
    <!-- Generator: Sketch 59 (86127) - https://sketch.com -->
    <title>cat_10</title>
    <desc>Created with Sketch.</desc>
    <defs>
        <circle id="path-1" cx="36" cy="36" r="36"></circle>
    </defs>
    <g id="Support" stroke="none" stroke-width="1" fill="none" fill-rule="evenodd">
        <g id="Support-cat-icons" transform="translate(-644.000000, -1296.000000)">
            <g id="Group-10" transform="translate(134.000000, 592.000000)">
                <g id="cat_10" transform="translate(510.000000, 704.000000)">
                    <g id="Molecules-/-Cards-/-Feature-Grid-Block">
                        <g id="Atoms-/-Icons-/-Backgrounds-/-Colours" fill-rule="nonzero">
                            <use fill="#FFFFFF" xlink:href="#path-1"></use>
                            <use fill-opacity="0.100203804" fill="#A3C559" xlink:href="#path-1"></use>
                        </g>
                        <g id="Atoms-/-Icons-/-Features-Demos-/-API" transform="translate(20.000000, 20.000000)">
                            <g id="cog-double" transform="translate(1.000000, 0.500000)">
                                <path d="M29.9790165,11.4503856 L29.9790165,11.4503856 C29.9304922,11.2803395 29.8181032,11.1356373 29.6653507,11.0465395 L28.2289498,10.2119241 L28.2289499,10.2119236 C28.4458249,9.25028107 28.4458249,8.25240819 28.2289497,7.29076973 L29.6438113,6.46153896 L29.6438113,6.46153894 C29.9652878,6.27487182 30.074566,5.86295144 29.8878918,5.54148721 C29.8877527,5.54124779 29.8876136,5.54100845 29.8874742,5.5407692 L28.5224222,3.20249997 L28.5224222,3.20249999 C28.3349322,2.88655229 27.9287148,2.7793096 27.6096952,2.96153845 L26.1221385,3.8028846 L26.1221385,3.80288462 C25.4301783,3.05045327 24.5187274,2.53516038 23.5172316,2.33019231 L23.5172316,0.673076923 L23.5172316,0.673076923 C23.5172316,0.301347308 23.2158728,0 22.844129,0 C22.844129,0 22.844129,0 22.844129,0 L20.1517188,0 L20.1517187,0 C19.779975,0 19.4786162,0.301347308 19.4786162,0.673076923 C19.4786162,0.673076923 19.4786162,0.673076923 19.4786162,0.673076923 L19.4786162,2.32884615 L19.4786156,2.32884626 C18.4775331,2.53268223 17.5658332,3.04596665 16.8723625,3.79615396 L15.3861521,2.96153857 L15.3861521,2.9615386 C15.0653851,2.78046071 14.6586386,2.89084169 14.473425,3.2092309 L13.108373,5.54211552 L13.108373,5.54211555 C12.921303,5.86334824 13.0300729,6.27540459 13.3513186,6.46246747 C13.3515579,6.46260679 13.3517972,6.46274597 13.3520366,6.462885 L14.7776679,7.29076961 L14.7776677,7.29077053 C14.5601155,8.25233765 14.5601155,9.25035322 14.7776677,10.2119244 L13.3372282,11.0411551 L13.3372282,11.0411552 C13.0151082,11.226709 12.9044057,11.6382498 13.0899667,11.9603561 C13.0902679,11.9608791 13.0905699,11.9614016 13.0908726,11.9619238 L14.4370777,14.3015392 L14.4370777,14.3015391 C14.6208279,14.6198102 15.0259105,14.7318627 15.3471123,14.5532699 L16.8710165,13.7065391 L16.8710165,13.706539 C17.5652383,14.4564652 18.477268,14.9696715 19.4786158,15.1738467 L19.4786158,16.8269236 L19.4786158,16.8269237 C19.4786158,17.1986534 19.7799746,17.5 20.1517184,17.5 L22.8441286,17.5 L22.8441286,17.5 C23.2158724,17.5 23.5172311,17.1986534 23.5172311,16.8269237 L23.5172311,15.1738468 L23.5172312,15.1738468 C24.5183138,14.9700108 25.4300137,14.4567264 26.1234844,13.7065391 L27.6487348,14.5532699 L27.6487347,14.5532698 C27.9699365,14.7318627 28.3750191,14.6198099 28.5587693,14.3015391 L29.9049745,11.9619237 L29.9049745,11.9619237 C29.9967532,11.8080596 30.0234008,11.6239556 29.9790159,11.4503852 L29.9790165,11.4503856 Z M21.4979242,12.1153856 L21.497924,12.1153856 C19.6392052,12.1153856 18.1324112,10.6086491 18.1324112,8.75000099 C18.1324112,6.89135291 19.6392052,5.38461637 21.497924,5.38461637 C23.3566429,5.38461637 24.8634369,6.89135291 24.8634369,8.75000099 L24.8634369,8.75000084 C24.8634369,10.6086489 23.3566429,12.1153856 21.497924,12.1153856 L21.4979242,12.1153856 Z" id="Shape" fill="#BBD382"></path>
                                <path d="M18.6276118,24.2999994 L17.0252208,23.3789995 L17.0252209,23.3789989 C17.2676123,22.3074546 17.2676123,21.1955392 17.0252207,20.1239993 L18.6185841,19.2014994 L18.6185842,19.2014994 C18.9778839,18.9934989 19.1000191,18.5345019 18.8913818,18.176299 C18.8912264,18.1760322 18.8910709,18.1757655 18.8909152,18.1754989 L17.3652584,15.5684992 L17.3652584,15.5684993 C17.1582536,15.2137223 16.703653,15.0907268 16.3451447,15.2924993 L14.690093,16.2299992 L14.6900933,16.2299995 C13.9105007,15.3907886 12.8845522,14.8190022 11.7591471,14.5964997 L11.7591471,12.7499999 L11.7591471,12.7499999 C11.7591471,12.335787 11.422332,12 11.0068509,12 L7.99766588,12 L7.99766585,12 C7.58218467,12 7.24536961,12.335787 7.24536961,12.7499999 C7.24536961,12.7499999 7.24536961,12.7499999 7.24536961,12.7499999 L7.24536961,14.5949997 L7.245369,14.5949998 C6.12650438,14.8221313 5.10753868,15.3940767 4.33247795,16.2299997 L2.67140784,15.2999998 L2.67140789,15.2999998 C2.31290111,15.0982273 1.85829903,15.2212232 1.65129418,15.5759998 L0.125637399,18.1754995 L0.12563738,18.1754995 C-0.0834422971,18.5334445 0.038124864,18.9925929 0.397166672,19.2010344 C0.39743408,19.2011896 0.397701585,19.2013447 0.397969186,19.2014996 L1.99133263,20.1239995 L1.9913324,20.1240005 C1.74818423,21.1954609 1.74818423,22.3075353 1.99133246,23.3790002 L0.376904715,24.3000016 L0.37690468,24.3000016 C0.0168857896,24.5067616 -0.106841365,24.9653355 0.100551664,25.324254 C0.10088838,25.3248367 0.101225879,25.325419 0.101564166,25.3260008 L1.60615665,27.9330005 L1.6061566,27.9330004 C1.81152595,28.2876454 2.26426837,28.4125039 2.62326112,28.2135004 L4.32645982,27.2700005 L4.32645968,27.2700004 C5.10313935,28.1075493 6.12422201,28.6805492 7.2453691,28.9080002 L7.2453691,30.75 L7.2453691,30.7500001 C7.24536917,31.164213 7.58218417,31.5 7.99766535,31.5 L11.0068503,31.5 L11.0068503,31.5 C11.4223315,31.5 11.7591465,31.164213 11.7591465,30.7500001 L11.7591465,28.9080003 L11.7591466,28.9080003 C12.8780113,28.6808688 13.896977,28.1089234 14.6720377,27.2730004 L16.376741,28.2165003 L16.3767409,28.2165003 C16.7357336,28.4155038 17.1884761,28.290645 17.3938454,27.9360003 L18.8984379,25.3290006 L18.8984379,25.3290006 C19.1067984,24.9706387 18.9843089,24.5117347 18.6248503,24.3040102 C18.6242667,24.303673 18.6236826,24.3033365 18.6230981,24.3030008 L18.6276118,24.2999994 Z M9.75000016,25.5 L9.75,25.5 C7.678935,25.5 6,23.821065 6,21.75 C6,19.678935 7.678935,18 9.75,18 C11.821065,18 13.5,19.678935 13.5,21.75 L13.5,21.7499998 C13.5,23.8210648 11.821065,25.5 9.75,25.5 L9.75000016,25.5 Z" id="Shape" fill="#A5C559" fill-rule="nonzero"></path>
                            </g>
                        </g>
                    </g>
                </g>
            </g>
        </g>
    </g>
</svg>