<?xml version="1.0" encoding="UTF-8"?>
<svg width="72px" height="72px" viewBox="0 0 72 72" version="1.1" xmlns="http://www.w3.org/2000/svg" xmlns:xlink="http://www.w3.org/1999/xlink">
    <!-- Generator: Sketch 59 (86127) - https://sketch.com -->
    <title>cat_15</title>
    <desc>Created with Sketch.</desc>
    <defs>
        <circle id="path-1" cx="36" cy="36" r="36"></circle>
    </defs>
    <g id="Support" stroke="none" stroke-width="1" fill="none" fill-rule="evenodd">
        <g id="Support-cat-icons" transform="translate(-795.000000, -376.000000)">
            <g id="Group-10" transform="translate(134.000000, 376.000000)">
                <g id="cat_15" transform="translate(661.000000, 0.000000)">
                    <g id="Molecules-/-Cards-/-Feature-Grid-Block">
                        <g id="Atoms-/-Icons-/-Backgrounds-/-Colours" fill-rule="nonzero">
                            <use fill="#FFFFFF" xlink:href="#path-1"></use>
                            <use fill-opacity="0.1" fill="#547BBA" xlink:href="#path-1"></use>
                        </g>
                        <g id="real-estate-location-house-pin-1" transform="translate(20.000000, 20.000000)">
                            <path d="M13.4666667,26.612 C12.4669026,26.4068555 11.6719159,25.6490813 11.419115,24.6602921 C11.1663141,23.6715029 11.5000454,22.6251525 12.2786667,21.9653333 L20.08,15.3613333 C20.165247,15.2898564 20.231252,15.1981829 20.272,15.0946667 C20.8709032,13.6884016 21.2296593,12.1916316 21.3333333,10.6666667 C21.3333333,4.77562934 16.557704,0 10.6666667,0 C4.77562934,0 0,4.77562934 0,10.6666667 C0,16.324 9.69733333,31.076 10.1106667,31.7 C10.2341155,31.8865948 10.442932,31.9988237 10.6666667,31.9988237 C10.8904014,31.9988237 11.0992178,31.8865948 11.2226667,31.7 C11.356,31.4933333 12.5146667,29.736 13.996,27.2773333 L13.996,27.264 C13.995826,26.9488773 13.7750307,26.6769152 13.4666667,26.612 Z M10.6666667,14 C8.8257175,14 7.33333333,12.5076158 7.33333333,10.6666667 C7.33333333,8.8257175 8.8257175,7.33333333 10.6666667,7.33333333 C12.5076158,7.33333333 14,8.8257175 14,10.6666667 C14,11.5507216 13.6488105,12.398568 13.0236893,13.0236893 C12.398568,13.6488105 11.5507216,14 10.6666667,14 Z" id="Shape" fill="#7E9DCF"></path>
                            <path d="M31.7626667,23.4906667 L23.096,16.1573333 C22.8471949,15.9462133 22.4821384,15.9462133 22.2333333,16.1573333 L13.5666667,23.4906667 C13.3527667,23.6713101 13.2745242,23.9663539 13.3708013,24.229253 C13.4670785,24.4921522 13.7173598,24.6668862 13.9973333,24.6666667 L15.3306667,24.6666667 C15.6988565,24.6666667 15.9973333,24.9651435 15.9973333,25.3333333 L15.9973333,31.3333333 C15.9973333,31.7015232 16.2958102,32 16.664,32 L20,32 C20.3681898,32 20.6666667,31.7015232 20.6666667,31.3333333 L20.6666667,28.3333333 C20.6666667,27.2287638 21.5620972,26.3333333 22.6666667,26.3333333 C23.7712362,26.3333333 24.6666667,27.2287638 24.6666667,28.3333333 L24.6666667,31.3333333 C24.6666667,31.7015232 24.9651435,32 25.3333333,32 L28.6666667,32 C29.0348565,32 29.3333333,31.7015232 29.3333333,31.3333333 L29.3333333,25.3333333 C29.3333333,24.9651435 29.6318102,24.6666667 30,24.6666667 L31.3333333,24.6666667 C31.6130627,24.6663267 31.8628309,24.4913931 31.9587613,24.2286271 C32.0546917,23.9658611 31.9763803,23.6711525 31.7626667,23.4906667 L31.7626667,23.4906667 Z" id="Path" fill="#547BBA" fill-rule="nonzero"></path>
                        </g>
                    </g>
                </g>
            </g>
        </g>
    </g>
</svg>