<svg width="72" height="72" viewBox="0 0 72 72" fill="none" xmlns="http://www.w3.org/2000/svg">
<rect width="72" height="72" rx="36" fill="#EEF5F8"/>
<g clip-path="url(#clip0_8626_20237)">
<mask id="mask0_8626_20237" style="mask-type:luminance" maskUnits="userSpaceOnUse" x="14" y="15" width="40" height="40">
<path d="M54 15H14V55H54V15Z" fill="white"/>
</mask>
<g mask="url(#mask0_8626_20237)">
<path d="M26.9412 19.7059H23.4117V16.1765C23.4117 15.5294 22.8823 15 22.2353 15H19.8823C19.2353 15 18.7059 15.5294 18.7059 16.1765V19.7059H15.1765C14.5294 19.7059 14 20.2353 14 20.8823V23.2353C14 23.8823 14.5294 24.4117 15.1765 24.4117H18.7059V27.9412C18.7059 28.5882 19.2353 29.1177 19.8823 29.1177H22.2353C22.8823 29.1177 23.4117 28.5882 23.4117 27.9412V24.4117H26.9412C27.5882 24.4117 28.1177 23.8823 28.1177 23.2353V20.8823C28.1177 20.2353 27.5882 19.7059 26.9412 19.7059Z" fill="#363987"/>
<path d="M30.4705 20.8824V23.2353C30.4705 23.8823 31 24.4118 31.647 24.4118H49.294V50.2941H23.4117V32.6471C23.4117 32 22.8823 31.4706 22.2352 31.4706H19.8823C19.2352 31.4706 18.7058 32 18.7058 32.6471V51.4706C18.7058 53.4235 20.2823 55 22.2352 55H50.4705C52.4235 55 54 53.4235 54 51.4706V23.2353C54 21.2824 52.4235 19.7059 50.4705 19.7059H31.647C31 19.7059 30.4705 20.2353 30.4705 20.8824Z" fill="#363987"/>
<path d="M44.5882 42.0588H28.1176C27.4678 42.0588 26.9412 42.5856 26.9412 43.2353V45.5883C26.9412 46.238 27.4678 46.7648 28.1176 46.7648H44.5882C45.2379 46.7648 45.7647 46.238 45.7647 45.5883V43.2353C45.7647 42.5856 45.2379 42.0588 44.5882 42.0588Z" fill="#363987"/>
<path d="M44.5882 33.8235H28.1176C27.4678 33.8235 26.9412 34.3503 26.9412 35V37.3529C26.9412 38.0027 27.4678 38.5294 28.1176 38.5294H44.5882C45.2379 38.5294 45.7647 38.0027 45.7647 37.3529V35C45.7647 34.3503 45.2379 33.8235 44.5882 33.8235Z" fill="#363987"/>
</g>
</g>
<defs>
<clipPath id="clip0_8626_20237">
<rect width="40" height="40" fill="white" transform="translate(14 15)"/>
</clipPath>
</defs>
</svg>
