<svg xmlns="http://www.w3.org/2000/svg" viewBox="0 0 192 31">
  <g fill="none" fill-rule="evenodd">
    <path fill="#A5C559" fill-rule="nonzero" d="M14.92 26.089c-.353.042-.677-.356-1.004-.654-3.285-2.988-6.572-5.964-9.798-9.037C2.635 14.985 1.081 13.62.394 11.55c-1.03-3.107 0-6.804 2.624-8.92A8.253 8.253 0 018.058.816h.125c2.61.015 5.184 1.366 6.699 3.536.41.588-.518 1.396-.747 1.963-.02.048-.138-.264-.156-.216-.024-.049-.054-.125-.08-.174-1.09-2.052-3.326-3.422-5.684-3.45h-.079c-2.356.007-4.66 1.378-5.769 3.523-1.086 2.101-1 4.776.53 6.745.902 1.16 2.025 2.137 3.108 3.157 2.58 2.429 5.202 4.82 7.822 7.21l.464.463s.222 2.409.406 2.483a.52.52 0 00.222.033z"/>
    <path fill="#1D2B3B" d="M21.63.822c2.76.012 5.482 1.51 6.947 3.915 1.538 2.523 1.606 5.95.036 8.403-.793 1.239-1.902 2.24-2.983 3.269-3.392 3.225-6.858 6.355-10.313 9.487l-.104.094a.548.548 0 01-.582.034c-.333-.193-.283-.734-.313-1.196-.309-4.79-.668-9.582-.805-14.374-.052-1.812-.013-3.626.882-5.307 1.37-2.576 4.168-4.3 7.16-4.325h.075zm-.01 5.142a3.004 3.004 0 013.003 3.002 3.004 3.004 0 01-6.005 0 3.004 3.004 0 013.003-3.002z"/>
    <path fill="#A5C559" fill-rule="nonzero" d="M8.16 5.204c1.358.013 2.671.811 3.303 2.008a3.811 3.811 0 01.072 3.36c-.704 1.482-2.437 2.404-4.11 2.083-1.536-.294-2.81-1.64-3.016-3.19a3.825 3.825 0 011.166-3.254A3.809 3.809 0 018.11 5.204h.049zm-.038 1.658c-.945.01-1.837.72-2.04 1.65-.285 1.312.925 2.788 2.427 2.52.851-.153 1.572-.886 1.704-1.747.178-1.169-.774-2.402-2.05-2.423h-.041zM37.45 4.048h3.77v8.265h9.25V4.048h3.8V24h-3.8v-8.613h-9.25V24h-3.77V4.048zm20.444 12.586c0-1.102.18-2.107.537-3.016a7.185 7.185 0 011.494-2.364 6.7 6.7 0 012.262-1.551c.87-.367 1.826-.551 2.87-.551.948 0 1.813.179 2.596.536a5.933 5.933 0 012.015 1.494c.561.638.996 1.402 1.305 2.291.31.89.465 1.866.465 2.929v.652c0 .223-.02.46-.059.711h-9.83c.116 1.102.575 1.996 1.377 2.682.802.687 1.812 1.03 3.03 1.03.677 0 1.378-.116 2.103-.348.725-.232 1.464-.57 2.219-1.015v3.103c-1.663.754-3.306 1.131-4.93 1.131-1.103 0-2.108-.188-3.017-.566a6.841 6.841 0 01-2.349-1.595 7.359 7.359 0 01-1.536-2.436c-.368-.937-.551-1.976-.551-3.117zm9.977-1.276c-.059-.986-.358-1.788-.9-2.407-.54-.619-1.227-.928-2.059-.928-.908 0-1.672.304-2.29.913-.62.61-.977 1.417-1.074 2.422h6.323zm6.525-12.209h3.712V24h-3.713V3.149zM92.316 16.75c0-.657-.086-1.257-.26-1.798a4.319 4.319 0 00-.725-1.392 3.236 3.236 0 00-1.117-.899 3.224 3.224 0 00-1.436-.319c-1.063 0-2.03.435-2.9 1.305v6.206c.87.87 1.837 1.305 2.9 1.305.523 0 1.001-.106 1.436-.319a3.236 3.236 0 001.117-.899c.309-.387.55-.85.725-1.392.174-.541.26-1.14.26-1.798zM82.167 9.5h3.712v.986c1.18-.89 2.407-1.334 3.683-1.334.967 0 1.852.188 2.654.565a6.228 6.228 0 012.074 1.566c.58.668 1.029 1.465 1.348 2.393.319.928.478 1.953.478 3.074 0 1.121-.159 2.146-.478 3.074-.319.928-.768 1.725-1.349 2.392a6.228 6.228 0 01-2.073 1.566c-.802.378-1.687.566-2.653.566-1.277 0-2.504-.454-3.684-1.363v7.366h-3.712V9.5z"/>
    <path fill="#1D2B3B" fill-rule="nonzero" d="M103.514 14.024c0-1.508.242-2.895.726-4.162.483-1.266 1.16-2.353 2.03-3.262a9.308 9.308 0 013.103-2.132c1.198-.512 2.513-.768 3.944-.768 1.952 0 3.866.483 5.742 1.45v3.422a12.46 12.46 0 00-2.596-1.247 7.832 7.832 0 00-2.508-.435c-.967 0-1.852.174-2.654.522a5.932 5.932 0 00-2.059 1.464c-.57.629-1.015 1.383-1.334 2.262-.319.88-.478 1.842-.478 2.886s.159 2.001.478 2.871c.319.87.764 1.624 1.334 2.262a5.846 5.846 0 002.059 1.479c.802.348 1.687.522 2.653.522.813 0 1.649-.145 2.509-.435a12.46 12.46 0 002.596-1.247v3.422c-1.876.967-3.79 1.45-5.742 1.45-1.431 0-2.746-.256-3.944-.769a9.308 9.308 0 01-3.104-2.131c-.87-.909-1.546-1.996-2.03-3.263-.483-1.266-.725-2.653-.725-4.161zm17.922 2.61c0-1.102.18-2.107.537-3.016a7.185 7.185 0 011.493-2.364 6.7 6.7 0 012.263-1.551c.87-.367 1.826-.551 2.87-.551.948 0 1.813.179 2.596.536a5.933 5.933 0 012.016 1.494c.56.638.995 1.402 1.304 2.291.31.89.465 1.866.465 2.929v.652c0 .223-.02.46-.058.711h-9.831c.116 1.102.575 1.996 1.377 2.682.802.687 1.812 1.03 3.03 1.03.677 0 1.378-.116 2.103-.348.725-.232 1.464-.57 2.219-1.015v3.103c-1.663.754-3.306 1.131-4.93 1.131-1.103 0-2.108-.188-3.016-.566a6.841 6.841 0 01-2.35-1.595 7.359 7.359 0 01-1.537-2.436c-.367-.937-.55-1.976-.55-3.117zm9.976-1.276c-.058-.986-.357-1.788-.899-2.407-.54-.619-1.227-.928-2.059-.928-.908 0-1.672.304-2.29.913-.62.61-.977 1.417-1.073 2.422h6.322zm6.525-5.858h3.712v1.247c1.335-1.063 2.746-1.595 4.234-1.595.755 0 1.446.126 2.074.377a4.822 4.822 0 011.638 1.073 4.79 4.79 0 011.073 1.653c.252.638.377 1.344.377 2.117V24h-3.74v-8.961c0-.773-.237-1.406-.711-1.9-.474-.493-1.087-.739-1.841-.739-1.103 0-2.137.512-3.103 1.537V24h-3.713V9.5zm21.721 0h4.177v2.987h-4.177v6.699c0 .6.194 1.092.58 1.479.387.387.9.58 1.537.58.6 0 1.286-.193 2.06-.58v3.074c-1.045.406-2.06.609-3.046.609a5.304 5.304 0 01-1.957-.348 4.515 4.515 0 01-1.522-.972 4.495 4.495 0 01-1.001-1.479 4.745 4.745 0 01-.363-1.87v-7.192h-2.494V9.5h2.494V5.411h3.713V9.5zm6.352 7.134c0-1.102.178-2.107.536-3.016a7.185 7.185 0 011.494-2.364 6.7 6.7 0 012.262-1.551c.87-.367 1.826-.551 2.87-.551.948 0 1.813.179 2.596.536a5.933 5.933 0 012.016 1.494c.56.638.995 1.402 1.305 2.291.309.89.464 1.866.464 2.929v.652c0 .223-.02.46-.059.711h-9.83c.116 1.102.575 1.996 1.377 2.682.802.687 1.812 1.03 3.03 1.03.677 0 1.378-.116 2.103-.348.725-.232 1.464-.57 2.219-1.015v3.103c-1.663.754-3.306 1.131-4.93 1.131-1.103 0-2.108-.188-3.017-.566a6.841 6.841 0 01-2.349-1.595 7.359 7.359 0 01-1.537-2.436c-.367-.937-.55-1.976-.55-3.117zm9.976-1.276c-.058-.986-.358-1.788-.9-2.407-.54-.619-1.227-.928-2.059-.928-.908 0-1.672.304-2.29.913-.62.61-.977 1.417-1.073 2.422h6.322zM182.51 9.5h3.712v1.45c1.082-1.199 2.271-1.798 3.566-1.798.213 0 .416.01.61.029.193.02.396.058.608.116v3.306a4.731 4.731 0 00-1.305-.174c-.618 0-1.232.16-1.841.478-.609.32-1.155.788-1.638 1.407V24h-3.713V9.5z"/>
  </g>
</svg>
