<?xml version="1.0" encoding="UTF-8"?>
<svg width="12px" height="15px" viewBox="0 0 12 15" version="1.1" xmlns="http://www.w3.org/2000/svg" xmlns:xlink="http://www.w3.org/1999/xlink">
    <!-- Generator: Sketch 59 (86127) - https://sketch.com -->
    <title>Shape</title>
    <desc>Created with Sketch.</desc>
    <defs>
        <linearGradient x1="17.2442778%" y1="57.9158058%" x2="87.6937301%" y2="28.0001722%" id="linearGradient-1">
            <stop stop-color="#549FBA" offset="0%"></stop>
            <stop stop-color="#547BBA" offset="100%"></stop>
        </linearGradient>
    </defs>
    <g id="Support" stroke="none" stroke-width="1" fill="none" fill-rule="evenodd">
        <g id="Support-SubCategory" transform="translate(-360.000000, -394.000000)" fill="url(#linearGradient-1)" fill-rule="nonzero">
            <g id="common-file-text" transform="translate(360.000000, 394.000000)">
                <path d="M11.6484,2.9484 L9.0516,0.3516 L9.05160004,0.351600037 C8.82660904,0.126540637 8.52143404,3.70599596e-08 8.20320004,3.70599596e-08 L1.20000004,3.70599596e-08 L1.19999998,3.70599596e-08 C0.537257985,3.70599596e-08 -1.54048787e-08,0.537258637 -1.54048787e-08,1.20000004 L-1.54048787e-08,13.2 L-1.54048787e-08,13.2000002 C-1.54048787e-08,13.8627422 0.537258585,14.4000002 1.19999998,14.4000002 L10.8,14.4000002 L10.7999999,14.4000002 C11.4627419,14.4000002 12,13.8627422 12,13.2000002 L12,3.79680022 L12,3.7970565 C12,3.4788225 11.8735926,3.1736205 11.6485812,2.9485785 L11.6484,2.9484 Z M5.4,11.7 L2.7,11.7 L2.69999997,11.7 C2.36862897,11.7 2.09999997,11.431371 2.09999997,11.1 C2.09999997,10.768629 2.36862897,10.5 2.69999997,10.5 L5.39999997,10.5 L5.39999995,10.5 C5.73137095,10.5 5.99999995,10.768629 5.99999995,11.1 C5.99999995,11.431371 5.73137095,11.7 5.39999995,11.7 L5.4,11.7 Z M8.09999997,9.3 L2.7,9.3 L2.69999997,9.3 C2.36862897,9.3 2.09999997,9.031371 2.09999997,8.7 C2.09999997,8.368629 2.36862897,8.1 2.69999997,8.1 L8.09999997,8.1 L8.09999997,8.1 C8.43137095,8.1 8.69999995,8.368629 8.69999995,8.7 C8.69999995,9.031371 8.43137095,9.3 8.09999997,9.3 L8.09999997,9.3 Z M8.09999997,6.9 L2.7,6.9 L2.69999997,6.9 C2.36862897,6.9 2.09999997,6.631371 2.09999997,6.3 C2.09999997,5.968629 2.36862897,5.7 2.69999997,5.7 L8.09999997,5.7 L8.09999997,5.7 C8.43137095,5.7 8.69999995,5.968629 8.69999995,6.3 C8.69999995,6.631371 8.43137095,6.9 8.09999997,6.9 L8.09999997,6.9 Z" id="Shape"></path>
            </g>
        </g>
    </g>
</svg>