<?xml version="1.0" encoding="UTF-8"?>
<svg width="15px" height="14px" viewBox="0 0 15 14" version="1.1" xmlns="http://www.w3.org/2000/svg" xmlns:xlink="http://www.w3.org/1999/xlink">
    <!-- Generator: Sketch 59 (86127) - https://sketch.com -->
    <title>Atoms / Icons / Blog / Tags Copy 4</title>
    <desc>Created with Sketch.</desc>
    <defs>
        <path d="M4.2,0.89075 C4.97779935,0.909703854 5.7206333,1.20885334 6.2844,1.73016667 L12.8844,8.14683333 C13.0322337,8.29366951 13.1538963,8.46340574 13.2444,8.64908333 C13.2789468,8.71746528 13.3618125,8.74847094 13.4346,8.72025 L13.746,8.5995 C14.0696629,8.49240141 14.3107192,8.22658078 14.3794545,7.90096896 C14.4481898,7.57535715 14.3343108,7.23871584 14.0802,7.01633333 L7.4802,0.599666667 C7.08512824,0.242775715 6.57132115,0.0357576134 6.0324,0.0163333333 L3.0324,0.0163333333 C2.56997125,0.0165021894 2.14922267,0.276255997 1.9524,0.683083333 C1.93007561,0.728015693 1.93325343,0.780979303 1.9608,0.823083333 C1.98828284,0.865610717 2.0363405,0.891396373 2.088,0.891333333 L4.2,0.89075 Z" id="path-1"></path>
    </defs>
    <g id="Support" stroke="none" stroke-width="1" fill="none" fill-rule="evenodd">
        <g id="Support-Search-Results" transform="translate(-381.000000, -2060.000000)">
            <g id="Group-Copy-4" transform="translate(361.000000, 1920.000000)">
                <g id="Group-15" transform="translate(20.000000, 135.000000)">
                    <g id="Atoms-/-Icons-/-Blog-/-Tags---webinar" transform="translate(0.000000, 5.000000)">
                        <g id="Atoms-/-Icons-/-Blog-/-Tags---research">
                            <g id="tags-double-1" transform="translate(0.023633, 0.000000)" fill-rule="nonzero">
                                <g id="Shape">
                                    <use fill="#FFFFFF" xlink:href="#path-1"></use>
                                    <use fill="#8EBFD1" xlink:href="#path-1"></use>
                                </g>
                                <path d="M12.2484,8.76575 L5.6484,2.34908333 C5.24805958,1.99988313 4.73705834,1.79408083 4.2,1.76575 L1.2,1.76575 C0.5372583,1.76575 0,2.28808446 0,2.93241667 L0,5.84908333 C0.0292354608,6.37120235 0.240905248,6.86797958 0.6,7.25725 L7.2,13.6739167 C7.38937774,13.8666054 7.65011874,13.9777077 7.9242,13.9825008 C7.98666833,13.9825008 8.04898508,13.976522 8.1102,13.9644167 C8.44302524,13.8924304 8.7147431,13.6597405 8.8302,13.3478333 L9.6642,11.3213333 C9.6946912,11.2474019 9.75495629,11.1888109 9.831,11.1591667 L11.916,10.3483333 C12.2396629,10.2412347 12.4807192,9.97541411 12.5494545,9.6498023 C12.6181898,9.32419048 12.5043108,8.98754918 12.2502,8.76516667 L12.2484,8.76575 Z M3.3,5.84908333 C2.93598398,5.84908333 2.60781132,5.63589643 2.46850842,5.30893134 C2.32920552,4.98196625 2.4062057,4.60561315 2.6636039,4.3553649 C2.92100209,4.10511665 3.30810814,4.03025537 3.64441509,4.16568874 C3.98072204,4.30112212 4.2,4.62017887 4.2,4.97408333 C4.2,5.45733249 3.79705627,5.84908333 3.3,5.84908333 L3.3,5.84908333 Z" id="Shape" fill="#549FBA"></path>
                            </g>
                        </g>
                    </g>
                </g>
            </g>
        </g>
    </g>
</svg>