<?xml version="1.0" encoding="utf-8"?>
<!-- Generator: Adobe Illustrator 25.4.1, SVG Export Plug-In . SVG Version: 6.00 Build 0)  -->
<svg version="1.1" id="Layer_1" xmlns="http://www.w3.org/2000/svg" xmlns:xlink="http://www.w3.org/1999/xlink" x="0px" y="0px"
	 viewBox="0 0 1293.3 149.6" style="enable-background:new 0 0 1293.3 149.6;" xml:space="preserve">
<style type="text/css">
	.st0{fill:#0B076C;}
	.st1{fill-rule:evenodd;clip-rule:evenodd;fill:#0B076C;}
</style>
<g>
	<g>
		<g>
			<g>
				<path class="st0" d="M59.3,109c-1.2,0.1-2.3-1.2-3.5-2.2C44.5,96.4,33.2,86.2,22.1,75.6C17,70.8,11.7,66.1,9.3,59
					c-3.5-10.7,0-23.4,9-30.7c5-4,11.3-6.2,17.8-6.2c9,0.1,17.8,4.7,23,12.2c1.4,2-1.8,4.8-2.6,6.7c-0.1,0.2-0.5-0.9-0.5-0.7
					c-0.1-0.2-0.2-0.4-0.3-0.6C52,32.6,44.3,27.9,36.2,27.8H36c-8.1,0-16,4.7-19.8,12.1c-3.7,7.2-3.4,16.4,1.8,23.2
					c3.1,4,7,7.4,10.7,10.9c8.9,8.4,17.9,16.6,26.9,24.8l1.6,1.6c0,0,0.8,8.3,1.4,8.5C58.8,108.9,59,109,59.3,109L59.3,109z"/>
			</g>
			<g>
				<path class="st0" d="M36,37.2c4.7,0,9.2,2.8,11.4,6.9c1.9,3.6,2,7.9,0.2,11.6c-2.4,5.1-8.4,8.3-14.1,7.2c-5.3-1-9.7-5.6-10.4-11
					c-0.5-4.2,1-8.3,4-11.2C29.6,38.4,32.7,37.2,36,37.2z M35.9,42.9c-3.2,0-6.3,2.5-7,5.7c-1,4.5,3.2,9.6,8.3,8.7
					c2.9-0.5,5.4-3,5.9-6c0.6-4-2.7-8.3-7-8.3L35.9,42.9z"/>
			</g>
		</g>
		<g>
			<path class="st1" d="M82.3,22.1c9.5,0,18.8,5.2,23.9,13.5c5.3,8.7,5.5,20.5,0.1,28.9c-2.7,4.3-6.5,7.7-10.3,11.2
				c-11.7,11.1-23.6,21.8-35.5,32.6l-0.4,0.3c-0.6,0.4-1.4,0.5-2,0.1c-1.1-0.7-1-2.5-1.1-4.1c-1.1-16.5-2.3-32.9-2.8-49.4
				c-0.2-6.2,0-12.5,3-18.2c4.7-8.9,14.3-14.8,24.6-14.9L82.3,22.1z M82.3,39.8c5.7,0,10.3,4.6,10.3,10.3c-0.2,5.7-4.9,10.2-10.6,10
				c-5.4-0.2-9.8-4.5-10-10C72,44.4,76.6,39.8,82.3,39.8L82.3,39.8z"/>
		</g>
	</g>
	<g>
		<path class="st0" d="M151.6,50.9h0.3c4.9-6.1,11.6-9.2,20.2-9.2c9.3,0,16.9,3.5,22.8,10.5c5.9,7,8.8,14.9,8.8,23.9
			c0,9.1-3,17.1-9.1,24.2c-6.1,7-13.7,10.5-23.1,10.5c-8.8,0-15.6-3.1-20.2-9.2h-0.3v8h-18.9V8h19.4V50.9z M155.8,88.4
			c3.1,3.1,7.1,4.7,11.7,4.7c4.6,0,8.6-1.6,11.7-4.7c3.1-3.2,4.7-7.3,4.7-12.3c0-4.9-1.6-9-4.9-12.1c-3.1-3.1-7.1-4.7-11.7-4.7
			c-4.6,0-8.5,1.6-11.6,4.7s-4.7,7.2-4.7,12.1C151.1,81.1,152.7,85.2,155.8,88.4z"/>
	</g>
	<g>
		<path class="st0" d="M250.1,61.9c-1.5-0.3-3-0.4-4.6-0.4c-12.6,0-18.1,7.8-18.1,19.8v28.2H208V42.9h19.3v10.2h0.1
			c2.9-6.1,10-11,18.8-11c1.6,0,2.9,0.1,3.9,0.5V61.9z"/>
	</g>
	<g>
		<path class="st0" d="M277.3,19.7c0,6.6-5.4,12-12.2,12c-6.5,0-12-5.4-12-12c0-6.6,5.5-12.1,12-12.1
			C271.9,7.6,277.3,12.9,277.3,19.7z M255.5,109.5V42.9h19.6v66.6H255.5z"/>
	</g>
	<g>
		<path class="st0" d="M298,114.6c3.7,7.5,9.6,11.2,17.7,11.2c10.1,0,16.7-5.2,16.7-15.6v-10.1h-0.3c-4.6,5.9-11,8.8-19.2,8.8
			c-9.5,0-17.2-3.2-23.2-9.6c-6-6.4-9-14.3-9-23.8c0-8.8,2.9-16.7,8.7-23.4c5.9-6.9,13.5-10.2,22.7-10.2c8.4,0,15.1,3,20.2,9.1h0.2
			v-8.1h19.1v66.8c0,10.3-3.4,18.4-10.1,24.3c-6.6,5.9-15.2,8.7-25.8,8.7c-16.5,0-27.7-6.4-33.7-19.1L298,114.6z M316.7,59.2
			c-9.1,0-16.2,6.7-16.2,16.3c0,9.8,6.9,16.5,16.2,16.5c9.1,0,16.2-6.6,16.2-16.5C332.9,66,326,59.2,316.7,59.2z"/>
	</g>
	<g>
		<path class="st0" d="M401.8,109.5V72.6c0-7.6-4-13-11.6-13c-7.9,0-12,5.7-12,12.7v37.1h-19.4V8h19.4v42.8h0.1
			c2.4-3.5,5.4-5.9,8.8-7.1c3.6-1.4,6.7-2,9.5-2c8,0,14.1,2.6,18.2,7.7c4.1,5.1,6.2,11.3,6.2,18.7v41.4H401.8z"/>
	</g>
	<g>
		<path class="st0" d="M472,109.1c-2.9,0.9-5.9,1.2-9.1,1.2c-17.3,0-26.4-9.5-26.4-25.1V59.7h-12V42.9h12.2V22.1h19.2v20.8h16.5
			v16.8h-16.5v23.2c0,7.6,4,10.6,11.6,10.6c1.6,0,3.1-0.1,4.5-0.5V109.1z"/>
	</g>
	<g>
		<path class="st0" d="M498.3,109.5h-19.6V7.9h19.6V109.5z"/>
	</g>
	<g>
		<path class="st0" d="M514.5,51.5c7.1-6.7,15.8-10.1,25.9-10.1c10.1,0,18.7,3.4,25.7,10c7,6.6,10.5,14.7,10.5,24.5
			c0,10-3.5,18.3-10.6,25.1c-7.1,6.6-15.7,10-25.8,10c-10.2,0-18.8-3.2-25.8-9.8c-7-6.6-10.5-14.8-10.5-24.8
			C503.9,66.5,507.4,58.1,514.5,51.5z M528.5,88.4c3.1,3.1,7.1,4.7,11.7,4.7c9.3,0,16.3-7.1,16.3-17.1c0-4.9-1.6-9-4.7-12.1
			c-3.1-3.2-7.1-4.9-11.7-4.9c-4.6,0-8.5,1.6-11.6,4.9c-3.1,3.1-4.7,7.2-4.7,12.1C523.8,81.1,525.4,85.2,528.5,88.4z"/>
	</g>
	<g>
		<path class="st0" d="M589.6,101.1c-6.7-6.6-10.1-14.8-10.1-24.8c0-9.8,3.5-18.1,10.5-24.8c7-6.7,15.5-10.1,25.4-10.1
			c14.8,0,27,7.5,31.4,20.6l-17.1,7.1c-2.9-6.6-7.7-9.8-14.3-9.8c-9,0-16,6.5-16,16.8c0,10,6.5,16.9,16,16.9c7,0,11.8-3.2,14.7-9.8
			l17.2,7.1c-5.1,13.6-17.2,20.7-32,20.7C605,111,596.3,107.7,589.6,101.1z"/>
	</g>
	<g>
		<path class="st0" d="M656.1,105.4c-4.4-3.6-6.5-8.5-6.5-14.5v-0.2c0-7.9,3.9-13.6,9.8-16.5c6.1-2.9,12.3-4,19.8-4h6.6
			c3.5,0,5.2-1.6,5.2-4.9c0-4.6-3.7-8.2-10.7-8.2c-6.6,0-11.5,3-14.8,9l-14.8-8.8c5.7-10.6,16-15.8,30.5-15.8
			c17.6,0,28.9,9.4,28.9,26.8v41.3h-17.9v-8.2l-0.3-0.1c-4.5,6.4-11.1,9.6-19.9,9.6C665.8,110.7,660.4,109,656.1,105.4z M691,83.7
			v-1.5h-11.7c-5.6,0-10.1,2.6-10.1,7.6c0,4.5,3.5,6.7,8.5,6.7C686,96.5,691,91,691,83.7z"/>
	</g>
	<g>
		<path class="st0" d="M736.1,109.5h-19.6V7.9h19.6V109.5z"/>
	</g>
</g>
<path class="st0" d="M811.8,55.7c4.4,4.4,6.6,10.9,6.6,19.5V110h-5V75.4c0-7.2-1.8-12.7-5.4-16.4c-3.6-3.8-8.5-5.7-14.7-5.7
	c-6.5,0-11.6,2.1-15.6,6.3c-3.9,4.2-5.9,10.4-5.9,18.6V110h-4.9V28.6h4.9V66c1.5-5.6,4.3-9.8,8.4-12.7c4.1-2.9,8.9-4.3,14.4-4.3
	C801.7,49.1,807.4,51.3,811.8,55.7z"/>
<path class="st0" d="M868.7,102c4.1-3,6.6-7.2,7.5-12.5h5.2c-1.1,6.4-4.1,11.5-9,15.4c-4.9,3.9-11.1,5.8-18.6,5.8
	c-5.6,0-10.7-1.2-15-3.7c-4.4-2.5-7.8-6-10.3-10.6c-2.5-4.6-3.7-10.1-3.7-16.4c0-6.2,1.2-11.7,3.7-16.3c2.5-4.6,5.9-8.2,10.3-10.6
	c4.4-2.5,9.4-3.7,15-3.7c5.8,0,10.8,1.2,15,3.7c4.2,2.5,7.4,5.7,9.6,9.7c2.2,4,3.2,8.3,3.2,12.8c0,1.8-0.2,3.8-0.5,5.8h-51.4
	c0.1,5.6,1.2,10.2,3.5,14c2.2,3.8,5.1,6.6,8.7,8.4c3.6,1.8,7.5,2.7,11.7,2.7C859.5,106.6,864.6,105.1,868.7,102z M841.8,56.3
	c-3.6,1.8-6.5,4.6-8.7,8.4c-2.2,3.7-3.4,8.4-3.5,13.9h47.1c0.3-5.5-0.6-10.1-2.8-13.9c-2.1-3.8-5-6.6-8.6-8.4
	c-3.6-1.8-7.5-2.7-11.7-2.7C849.4,53.6,845.4,54.5,841.8,56.3z"/>
<path class="st0" d="M894.4,28.6V110h-4.9V28.6H894.4z"/>
<path class="st0" d="M948.5,53.2c4.3,2.5,7.6,6,10.1,10.6c2.4,4.6,3.6,10,3.6,16.3c0,6.2-1.2,11.7-3.6,16.3
	c-2.4,4.7-5.8,8.2-10.1,10.7c-4.3,2.5-9.2,3.7-14.8,3.7c-6.5,0-11.9-1.7-16.4-5.1c-4.5-3.4-7.6-7.9-9.2-13.5v46h-4.8V50.3h4.8v17.8
	c1.6-5.6,4.7-10.1,9.2-13.5c4.5-3.4,10-5.1,16.4-5.1C939.3,49.5,944.2,50.7,948.5,53.2z M920.1,57.2c-3.7,2.2-6.7,5.2-8.8,9.2
	c-2.1,4-3.2,8.5-3.2,13.8c0,5.2,1.1,9.8,3.2,13.8c2.1,4,5.1,7.1,8.8,9.2c3.7,2.2,8,3.2,12.6,3.2c7.5,0,13.4-2.3,17.9-7
	c4.4-4.7,6.7-11.1,6.7-19.2c0-8.1-2.2-14.4-6.7-19.1c-4.4-4.7-10.4-7-17.9-7C928,53.9,923.8,55,920.1,57.2z"/>
<g>
	<path class="st0" d="M1035.1,57c4.8,3.8,7.7,8.9,8.8,15.2h-5c-0.9-5.2-3.3-9.2-7.3-12.2c-4-3-8.9-4.5-14.8-4.5
		c-4.2,0-8.1,0.9-11.6,2.8c-3.5,1.9-6.3,4.7-8.5,8.6s-3.2,8.6-3.2,14.3c0,5.7,1.1,10.4,3.2,14.3c2.1,3.9,5,6.7,8.5,8.6
		c3.5,1.9,7.4,2.8,11.6,2.8c5.9,0,10.8-1.5,14.8-4.5c4-3,6.4-7.1,7.3-12.2h5c-1.1,6.4-4,11.5-8.8,15.3c-4.8,3.8-10.9,5.7-18.2,5.7
		c-5.5,0-10.4-1.2-14.6-3.6c-4.3-2.4-7.6-5.8-10-10.4c-2.4-4.5-3.6-9.8-3.6-16c0-6.1,1.2-11.4,3.6-15.9c2.4-4.5,5.8-8,10-10.4
		c4.3-2.4,9.1-3.6,14.6-3.6C1024.2,51.2,1030.3,53.1,1035.1,57z"/>
	<path class="st0" d="M1091.1,102.5c4-3,6.4-7,7.3-12.2h5c-1.1,6.2-4,11.2-8.7,15c-4.8,3.8-10.8,5.7-18.2,5.7
		c-5.5,0-10.4-1.2-14.6-3.6c-4.3-2.4-7.6-5.8-10-10.4c-2.4-4.5-3.6-9.8-3.6-16c0-6.1,1.2-11.4,3.6-15.9c2.4-4.5,5.8-8,10-10.4
		c4.3-2.4,9.1-3.6,14.6-3.6c5.7,0,10.5,1.2,14.6,3.6c4.1,2.4,7.2,5.5,9.3,9.4c2.1,3.9,3.2,8.1,3.2,12.5c0,1.8-0.2,3.7-0.5,5.7H1053
		c0.1,5.4,1.2,10,3.4,13.7c2.2,3.7,5,6.4,8.5,8.2c3.5,1.8,7.3,2.6,11.4,2.6C1082.1,106.9,1087.1,105.4,1091.1,102.5z M1064.9,57.9
		c-3.5,1.8-6.4,4.5-8.5,8.2c-2.2,3.6-3.3,8.2-3.4,13.5h45.9c0.3-5.4-0.6-9.9-2.7-13.6c-2.1-3.7-4.9-6.4-8.4-8.2
		c-3.5-1.8-7.3-2.6-11.4-2.6C1072.3,55.2,1068.4,56.1,1064.9,57.9z"/>
	<path class="st0" d="M1154.5,57.2c4.3,4.3,6.4,10.6,6.4,19v34h-4.8V76.4c0-7-1.8-12.4-5.3-16c-3.5-3.7-8.3-5.5-14.4-5.5
		c-6.3,0-11.4,2.1-15.2,6.2c-3.8,4.1-5.7,10.2-5.7,18.2v31h-4.8V52h4.8v15.3c1.4-5.4,4.2-9.6,8.2-12.3c4-2.8,8.7-4.2,14-4.2
		C1144.6,50.8,1150.2,52.9,1154.5,57.2z"/>
	<path class="st0" d="M1177.6,56.4v37.5c0,4.7,0.8,7.8,2.5,9.5c1.6,1.7,4.5,2.5,8.7,2.5h6.1v4.4h-6.7c-5.4,0-9.3-1.3-11.8-3.8
		c-2.5-2.5-3.7-6.7-3.7-12.7V56.4h-9.2V52h9.2V37.2h4.8V52h17.3v4.4H1177.6z"/>
	<path class="st0" d="M1239.3,102.5c4-3,6.4-7,7.3-12.2h5c-1.1,6.2-4,11.2-8.7,15c-4.8,3.8-10.8,5.7-18.2,5.7
		c-5.5,0-10.4-1.2-14.6-3.6c-4.3-2.4-7.6-5.8-10-10.4c-2.4-4.5-3.6-9.8-3.6-16c0-6.1,1.2-11.4,3.6-15.9c2.4-4.5,5.8-8,10-10.4
		c4.3-2.4,9.1-3.6,14.6-3.6c5.7,0,10.5,1.2,14.6,3.6c4.1,2.4,7.2,5.5,9.3,9.4c2.1,3.9,3.2,8.1,3.2,12.5c0,1.8-0.2,3.7-0.5,5.7h-50.1
		c0.1,5.4,1.2,10,3.4,13.7c2.2,3.7,5,6.4,8.5,8.2c3.5,1.8,7.3,2.6,11.4,2.6C1230.3,106.9,1235.3,105.4,1239.3,102.5z M1213.1,57.9
		c-3.5,1.8-6.4,4.5-8.5,8.2c-2.2,3.6-3.3,8.2-3.4,13.5h45.9c0.3-5.4-0.6-9.9-2.7-13.6c-2.1-3.7-4.9-6.4-8.4-8.2
		c-3.5-1.8-7.3-2.6-11.4-2.6C1220.5,55.2,1216.6,56.1,1213.1,57.9z"/>
	<path class="st0" d="M1271.7,54.4c3.8-2.4,8.6-3.6,14.5-3.6V56h-1.6c-5.9,0-10.8,1.6-14.8,4.9c-4,3.3-6,8.6-6,16v33.3h-4.8V52h4.8
		v12.9C1265.3,60.3,1267.9,56.8,1271.7,54.4z"/>
</g>
</svg>
