<?xml version="1.0" encoding="UTF-8"?>
<svg width="18px" height="18px" viewBox="0 0 18 18" version="1.1" xmlns="http://www.w3.org/2000/svg" xmlns:xlink="http://www.w3.org/1999/xlink">
    <!-- Generator: Sketch 59 (86127) - https://sketch.com -->
    <title>voteup</title>
    <desc>Created with Sketch.</desc>
    <g id="Support" stroke="none" stroke-width="1" fill="none" fill-rule="evenodd">
        <g id="Support-Article-sticky-header" transform="translate(-966.000000, -4387.000000)" fill="#FFFFFF" fill-rule="nonzero">
            <g id="Group-11" transform="translate(20.000000, 4313.000000)">
                <g id="Share-it" transform="translate(906.000000, 0.000000)">
                    <g id="voteup" transform="translate(28.000000, 64.000000)">
                        <path d="M15,27.624999 L15,17.1249715 C15,16.9166376 14.8333408,16.7499705 14.6250069,16.7499705 L12.375001,16.7499705 C12.1666671,16.7499705 12,16.9166376 12,17.1249715 L12,27.624999 C12,27.8333329 12.1666671,28 12.375001,28 L14.6250069,28 C14.8333408,28 15,27.8333329 15,27.624999 Z M30.0000472,21.4374828 C30.0000472,22.1249846 29.6042128,22.7083195 29.020878,22.9791535 C29.1667117,23.2499875 29.2500452,23.541655 29.2500452,23.8749892 C29.2500452,24.6874913 28.7292105,25.3958265 27.9792086,25.6458272 C28.0833755,25.854161 28.1250423,26.0833283 28.1250423,26.3124956 C28.1250423,27.249998 27.3750403,28 26.4375379,28 L22.5000275,28 C21.8750259,28 20.9166901,27.7916661 20.3541886,27.5416655 L16.5000118,25.7499941 L16.5000118,17.8749734 C21.0000236,14.8749656 21.7500256,13.3749616 21.7500256,11.1249557 C21.7500256,10.4999528 22.2500269,9.99995279 22.8750285,9.99995279 C23.2916963,9.99995279 23.7500308,10.3124536 24.1041984,10.8332883 C24.5208662,11.4166232 24.7500334,12.1874585 24.7500334,12.9999528 C24.7500334,14.416631 24.0416982,16.2291358 24.0208649,16.2291358 C23.9791981,16.3541361 24.0000315,16.4791365 24.0625316,16.5833034 C24.1250318,16.6874703 24.2500321,16.7499705 24.3750325,16.7499705 L28.3125428,16.7499705 C29.2500452,16.7499705 30.0000472,17.4999725 30.0000472,18.4374749 C30.0000472,19.0833099 29.6250462,19.6666448 29.0833781,19.9374789 C29.6250462,20.2291463 30.0000472,20.7916478 30.0000472,21.4374828 Z"></path>
                    </g>
                </g>
            </g>
        </g>
    </g>
</svg>