<?xml version="1.0" encoding="UTF-8"?>
<svg width="18px" height="18px" viewBox="0 0 18 18" version="1.1" xmlns="http://www.w3.org/2000/svg" xmlns:xlink="http://www.w3.org/1999/xlink">
    <!-- Generator: Sketch 59 (86127) - https://sketch.com -->
    <title>votedown</title>
    <desc>Created with Sketch.</desc>
    <g id="Support" stroke="none" stroke-width="1" fill="none" fill-rule="evenodd">
        <g id="Support-Article-sticky-header" transform="translate(-1022.000000, -4387.000000)" fill="#FFFFFF" fill-rule="nonzero">
            <g id="Group-11" transform="translate(20.000000, 4313.000000)">
                <g id="Share-it" transform="translate(906.000000, 0.000000)">
                    <g id="votedown" transform="translate(84.000000, 64.000000)">
                        <path d="M15,10.3749538 C15,10.1666199 14.8333408,9.99995279 14.6250069,9.99995279 L12.375001,9.99995279 C12.1666671,9.99995279 12,10.1666199 12,10.3749538 L12,20.8749813 C12,21.0833152 12.1666671,21.2499823 12.375001,21.2499823 L14.6250069,21.2499823 C14.8333408,21.2499823 15,21.0833152 15,20.8749813 L15,10.3749538 Z M30.0000472,16.56247 C30.0000472,17.208305 29.6250462,17.7916399 29.0833781,18.0624739 C29.6250462,18.3541414 30.0000472,18.9166428 30.0000472,19.5624779 C30.0000472,20.4999803 29.2500452,21.2499823 28.3125428,21.2499823 L24.3750325,21.2499823 C24.2500321,21.2499823 24.1250318,21.3124825 24.0625316,21.4166494 C24.0000315,21.5208163 23.9791981,21.6458167 24.0208649,21.770817 L24.0581778,21.8574465 C24.2077143,22.2337088 24.7500334,23.7604055 24.7500334,24.9999921 C24.7500334,25.8124943 24.5208662,26.5833296 24.1041984,27.1874979 C23.7500308,27.6874992 23.2916963,28 22.8750285,28 C22.2500269,28 21.7500256,27.4999987 21.7500256,26.874997 L21.7450951,26.5726155 C21.6740956,24.485528 20.7954776,22.9886232 16.5000118,20.1249793 L16.5000118,12.2499587 L20.3541886,10.4582873 C20.9166901,10.2082867 21.8750259,9.99995279 22.5000275,9.99995279 L26.4375379,9.99995279 C27.3750403,9.99995279 28.1250423,10.7499548 28.1250423,11.6874572 C28.1250423,11.9166245 28.0833755,12.1457918 27.9792086,12.3541256 C28.7292105,12.6041263 29.2500452,13.3124615 29.2500452,14.1249636 C29.2500452,14.4582978 29.1667117,14.7707986 29.020878,15.0207993 C29.6042128,15.2916333 30.0000472,15.8749682 30.0000472,16.56247 Z"></path>
                    </g>
                </g>
            </g>
        </g>
    </g>
</svg>