<?xml version="1.0" encoding="UTF-8"?>
<svg width="72px" height="72px" viewBox="0 0 72 72" version="1.1" xmlns="http://www.w3.org/2000/svg" xmlns:xlink="http://www.w3.org/1999/xlink">
    <title>cat_05</title>
    <g id="Page-1" stroke="none" stroke-width="1" fill="none" fill-rule="evenodd">
        <g id="cat_05" fill-rule="nonzero">
            <g id="Atoms-/-Icons-/-Backgrounds-/-Colours">
                <g id="path-1-link" fill="#FFFFFF">
                    <circle id="path-1" cx="36" cy="36" r="36"></circle>
                </g>
                <g id="path-1-link" fill="#C15790" fill-opacity="0.0965806159">
                    <circle id="path-1" cx="36" cy="36" r="36"></circle>
                </g>
            </g>
            <g id="academy" transform="translate(17.000000, 21.000000)" fill="#000000">
                <path d="M9.25,3.75 C9.25,1.68164063 10.9092187,0 12.95,0 L33.3,0 C35.3407812,0 37,1.68164063 37,3.75 L37,20.625 C37,22.6933594 35.3407812,24.375 33.3,24.375 L19.47125,24.375 C18.7890625,22.8808594 17.7426563,21.5917969 16.441875,20.625 L22.2,20.625 L22.2,18.75 C22.2,17.7128906 23.0267188,16.875 24.05,16.875 L27.75,16.875 C28.7732813,16.875 29.6,17.7128906 29.6,18.75 L29.6,20.625 L33.3,20.625 L33.3,3.75 L12.95,3.75 L12.95,6.62695312 C11.863125,5.98828125 10.5970313,5.625 9.25,5.625 L9.25,3.75 Z M9.25,7.5 C11.232824,7.5 13.065029,8.57211891 14.0564411,10.3125 C15.0478531,12.052881 15.0478531,14.197119 14.0564411,15.9375 C13.065029,17.6778811 11.232824,18.75 9.25,18.75 C7.26717596,18.75 5.43497097,17.6778811 4.44355894,15.9375 C3.45214691,14.197119 3.45214691,12.052881 4.44355894,10.3125 C5.43497097,8.57211891 7.26717596,7.5 9.25,7.5 Z M7.70640625,20.625 L10.7878125,20.625 C15.0485938,20.625 18.5,24.1230469 18.5,28.4355469 C18.5,29.296875 17.8120313,30 16.9564063,30 L1.54359375,30 C0.68796875,30 0,29.3027344 0,28.4355469 C0,24.1230469 3.45140625,20.625 7.70640625,20.625 Z" id="Shape"></path>
            </g>
        </g>
    </g>
</svg>