<?xml version="1.0" encoding="UTF-8"?>
<svg width="72px" height="72px" viewBox="0 0 72 72" version="1.1" xmlns="http://www.w3.org/2000/svg" xmlns:xlink="http://www.w3.org/1999/xlink">
    <title>circle</title>
    <g id="Page-1" stroke="none" stroke-width="1" fill="none" fill-rule="evenodd">
        <g id="circle" fill-rule="nonzero">
            <g id="path-1-link" fill="#FFFFFF">
                <circle id="path-1" cx="36" cy="36" r="36"></circle>
            </g>
            <g id="path-1-link" fill="#C15790" fill-opacity="0.0965806159">
                <circle id="path-1" cx="36" cy="36" r="36"></circle>
            </g>
            <g id="list-icon" transform="translate(20.000000, 22.000000)" fill="#000000">
                <path d="M1.59677419,0 C0.711895161,0 0,0.694471154 0,1.55769231 L0,4.67307692 C0,5.53629808 0.711895161,6.23076923 1.59677419,6.23076923 L4.79032258,6.23076923 C5.67520161,6.23076923 6.38709677,5.53629808 6.38709677,4.67307692 L6.38709677,1.55769231 C6.38709677,0.694471154 5.67520161,0 4.79032258,0 L1.59677419,0 Z M11.7096774,1.03846154 C10.5320565,1.03846154 9.58064516,1.96658654 9.58064516,3.11538462 C9.58064516,4.26418269 10.5320565,5.19230769 11.7096774,5.19230769 L30.8709677,5.19230769 C32.0485887,5.19230769 33,4.26418269 33,3.11538462 C33,1.96658654 32.0485887,1.03846154 30.8709677,1.03846154 L11.7096774,1.03846154 Z M11.7096774,11.4230769 C10.5320565,11.4230769 9.58064516,12.3512019 9.58064516,13.5 C9.58064516,14.6487981 10.5320565,15.5769231 11.7096774,15.5769231 L30.8709677,15.5769231 C32.0485887,15.5769231 33,14.6487981 33,13.5 C33,12.3512019 32.0485887,11.4230769 30.8709677,11.4230769 L11.7096774,11.4230769 Z M11.7096774,21.8076923 C10.5320565,21.8076923 9.58064516,22.7358173 9.58064516,23.8846154 C9.58064516,25.0334135 10.5320565,25.9615385 11.7096774,25.9615385 L30.8709677,25.9615385 C32.0485887,25.9615385 33,25.0334135 33,23.8846154 C33,22.7358173 32.0485887,21.8076923 30.8709677,21.8076923 L11.7096774,21.8076923 Z M0,11.9423077 L0,15.0576923 C0,15.9209135 0.711895161,16.6153846 1.59677419,16.6153846 L4.79032258,16.6153846 C5.67520161,16.6153846 6.38709677,15.9209135 6.38709677,15.0576923 L6.38709677,11.9423077 C6.38709677,11.0790865 5.67520161,10.3846154 4.79032258,10.3846154 L1.59677419,10.3846154 C0.711895161,10.3846154 0,11.0790865 0,11.9423077 Z M1.59677419,20.7692308 C0.711895161,20.7692308 0,21.4637019 0,22.3269231 L0,25.4423077 C0,26.3055288 0.711895161,27 1.59677419,27 L4.79032258,27 C5.67520161,27 6.38709677,26.3055288 6.38709677,25.4423077 L6.38709677,22.3269231 C6.38709677,21.4637019 5.67520161,20.7692308 4.79032258,20.7692308 L1.59677419,20.7692308 Z" id="Shape"></path>
            </g>
        </g>
    </g>
</svg>