<?xml version="1.0" encoding="UTF-8"?>
<svg width="72px" height="72px" viewBox="0 0 72 72" version="1.1" xmlns="http://www.w3.org/2000/svg" xmlns:xlink="http://www.w3.org/1999/xlink">
    <title>circle</title>
    <g id="Page-1" stroke="none" stroke-width="1" fill="none" fill-rule="evenodd">
        <g id="circle" fill-rule="nonzero">
            <g id="path-1-link" fill="#FFFFFF">
                <circle id="path-1" cx="36" cy="36" r="36"></circle>
            </g>
            <g id="path-1-link" fill="#C15790" fill-opacity="0.0965806159">
                <circle id="path-1" cx="36" cy="36" r="36"></circle>
            </g>
            <g id="search" transform="translate(20.000000, 20.000000)" fill="#000000">
                <path d="M26.0012696,12.998096 C26.0012696,15.8664258 25.0699741,18.5160377 23.5011475,20.6657228 L31.4140339,28.583313 C32.195322,29.3644486 32.195322,30.6330127 31.4140339,31.4141483 C30.6327457,32.1952839 29.3639338,32.1952839 28.5826456,31.4141483 L20.6697593,23.4965581 C18.5196543,25.0713274 15.8695249,25.996192 13.0006348,25.996192 C5.81903413,25.996192 0,20.1782942 0,12.998096 C0,5.81789777 5.81903413,0 13.0006348,0 C20.1822355,0 26.0012696,5.81789777 26.0012696,12.998096 Z M18.0008789,10.9983889 C18.0008789,8.23629351 15.7632697,5.99912122 13.0006348,5.99912122 C10.2379999,5.99912122 8.00039064,8.23629351 8.00039064,10.9983889 C8.00039064,14.0479422 10.9067826,17.9723673 12.2881,19.6596202 C12.6631183,20.1158033 13.3381513,20.1158033 13.7069193,19.6596202 C15.0882367,17.9723673 17.9946286,14.0479422 17.9946286,10.9983889 L18.0008789,10.9983889 Z M11.0005371,10.9983889 C11.0005371,9.89398119 11.8960114,8.99868183 13.0006348,8.99868183 C14.1052582,8.99868183 15.0007325,9.89398119 15.0007325,10.9983889 C15.0007325,12.1027966 14.1052582,12.998096 13.0006348,12.998096 C11.8960114,12.998096 11.0005371,12.1027966 11.0005371,10.9983889 Z" id="Shape"></path>
            </g>
        </g>
    </g>
</svg>