<?xml version="1.0" encoding="UTF-8"?>
<svg width="72px" height="72px" viewBox="0 0 72 72" version="1.1" xmlns="http://www.w3.org/2000/svg" xmlns:xlink="http://www.w3.org/1999/xlink">
    <title>circle</title>
    <g id="Page-1" stroke="none" stroke-width="1" fill="none" fill-rule="evenodd">
        <g id="circle" fill-rule="nonzero">
            <g id="path-1-link" fill="#FFFFFF">
                <circle id="path-1" cx="36" cy="36" r="36"></circle>
            </g>
            <g id="path-1-link" fill="#C15790" fill-opacity="0.0965806159">
                <circle id="path-1" cx="36" cy="36" r="36"></circle>
            </g>
            <g id="grid" opacity="0.8" transform="translate(19.000000, 19.000000)" fill="#000000">
                <path d="M0,3.03571429 C0,1.35848214 1.35848214,0 3.03571429,0 L6.67857143,0 C8.35580357,0 9.71428571,1.35848214 9.71428571,3.03571429 L9.71428571,6.67857143 C9.71428571,8.35580357 8.35580357,9.71428571 6.67857143,9.71428571 L3.03571429,9.71428571 C1.35848214,9.71428571 0,8.35580357 0,6.67857143 L0,3.03571429 Z M0,15.1785714 C0,13.5013393 1.35848214,12.1428571 3.03571429,12.1428571 L6.67857143,12.1428571 C8.35580357,12.1428571 9.71428571,13.5013393 9.71428571,15.1785714 L9.71428571,18.8214286 C9.71428571,20.4986607 8.35580357,21.8571429 6.67857143,21.8571429 L3.03571429,21.8571429 C1.35848214,21.8571429 0,20.4986607 0,18.8214286 L0,15.1785714 Z M9.71428571,27.3214286 L9.71428571,30.9642857 C9.71428571,32.6415179 8.35580357,34 6.67857143,34 L3.03571429,34 C1.35848214,34 0,32.6415179 0,30.9642857 L0,27.3214286 C0,25.6441964 1.35848214,24.2857143 3.03571429,24.2857143 L6.67857143,24.2857143 C8.35580357,24.2857143 9.71428571,25.6441964 9.71428571,27.3214286 Z M12.1428571,3.03571429 C12.1428571,1.35848214 13.5013393,0 15.1785714,0 L18.8214286,0 C20.4986607,0 21.8571429,1.35848214 21.8571429,3.03571429 L21.8571429,6.67857143 C21.8571429,8.35580357 20.4986607,9.71428571 18.8214286,9.71428571 L15.1785714,9.71428571 C13.5013393,9.71428571 12.1428571,8.35580357 12.1428571,6.67857143 L12.1428571,3.03571429 Z M21.8571429,15.1785714 L21.8571429,18.8214286 C21.8571429,20.4986607 20.4986607,21.8571429 18.8214286,21.8571429 L15.1785714,21.8571429 C13.5013393,21.8571429 12.1428571,20.4986607 12.1428571,18.8214286 L12.1428571,15.1785714 C12.1428571,13.5013393 13.5013393,12.1428571 15.1785714,12.1428571 L18.8214286,12.1428571 C20.4986607,12.1428571 21.8571429,13.5013393 21.8571429,15.1785714 Z M12.1428571,27.3214286 C12.1428571,25.6441964 13.5013393,24.2857143 15.1785714,24.2857143 L18.8214286,24.2857143 C20.4986607,24.2857143 21.8571429,25.6441964 21.8571429,27.3214286 L21.8571429,30.9642857 C21.8571429,32.6415179 20.4986607,34 18.8214286,34 L15.1785714,34 C13.5013393,34 12.1428571,32.6415179 12.1428571,30.9642857 L12.1428571,27.3214286 Z M34,3.03571429 L34,6.67857143 C34,8.35580357 32.6415179,9.71428571 30.9642857,9.71428571 L27.3214286,9.71428571 C25.6441964,9.71428571 24.2857143,8.35580357 24.2857143,6.67857143 L24.2857143,3.03571429 C24.2857143,1.35848214 25.6441964,0 27.3214286,0 L30.9642857,0 C32.6415179,0 34,1.35848214 34,3.03571429 Z M24.2857143,15.1785714 C24.2857143,13.5013393 25.6441964,12.1428571 27.3214286,12.1428571 L30.9642857,12.1428571 C32.6415179,12.1428571 34,13.5013393 34,15.1785714 L34,18.8214286 C34,20.4986607 32.6415179,21.8571429 30.9642857,21.8571429 L27.3214286,21.8571429 C25.6441964,21.8571429 24.2857143,20.4986607 24.2857143,18.8214286 L24.2857143,15.1785714 Z M34,27.3214286 L34,30.9642857 C34,32.6415179 32.6415179,34 30.9642857,34 L27.3214286,34 C25.6441964,34 24.2857143,32.6415179 24.2857143,30.9642857 L24.2857143,27.3214286 C24.2857143,25.6441964 25.6441964,24.2857143 27.3214286,24.2857143 L30.9642857,24.2857143 C32.6415179,24.2857143 34,25.6441964 34,27.3214286 Z" id="Shape"></path>
            </g>
        </g>
    </g>
</svg>