<?xml version="1.0" encoding="UTF-8"?>
<svg width="72px" height="72px" viewBox="0 0 72 72" version="1.1" xmlns="http://www.w3.org/2000/svg" xmlns:xlink="http://www.w3.org/1999/xlink">
    <title>full-tools</title>
    <g id="Page-1" stroke="none" stroke-width="1" fill="none" fill-rule="evenodd">
        <g id="full-tools" fill-rule="nonzero">
            <g id="path-1-link" fill="#FFFFFF">
                <circle id="path-1" cx="36" cy="36" r="36"></circle>
            </g>
            <g id="path-1-link" fill="#C15790" fill-opacity="0.0965806159">
                <circle id="path-1" cx="36" cy="36" r="36"></circle>
            </g>
            <g id="tools" opacity="0.8" transform="translate(21.000000, 20.000000)" fill="#000000">
                <path d="M4.76043667,0.30345509 C4.18527319,-0.144581265 3.36793561,-0.0900903572 2.84726131,0.424545997 L0.425520345,2.84636414 C-0.08909961,3.36100049 -0.143588782,4.17836411 0.298378944,4.75960047 L5.14186087,11.0563276 C5.41430673,11.4135458 5.84416575,11.6254549 6.29218783,11.6254549 L9.56759248,11.6254549 L16.1668366,18.2249093 C15.2768468,19.9807275 15.5614014,22.184582 17.032609,23.6497819 L23.8134837,30.4308727 C24.5702777,31.1876909 25.7993113,31.1876909 26.5561053,30.4308727 L30.4308909,26.5559637 C31.1876849,25.7991455 31.1876849,24.5700728 30.4308909,23.8132547 L23.6500162,17.0321639 C22.1848629,15.5669639 19.9810786,15.2763457 18.2253164,16.1663639 L11.6260723,9.56690947 L11.6260723,6.29140044 C11.6260723,5.83730954 11.41417,5.41349136 11.0569632,5.14103682 L4.76043667,0.30345509 Z M1.20653181,23.9827819 C0.437629049,24.7517092 0.00171567615,25.7991455 0.00171567615,26.8889637 C0.00171567615,29.1594182 1.84223881,31 4.11262096,31 C5.20240439,31 6.24980736,30.5640727 7.01871012,29.7951455 L14.1507373,22.6628911 C13.6784978,21.3974911 13.6058455,20.0231093 13.9327806,18.721382 L10.1972451,14.9857276 L1.20653181,23.9827819 Z M31,8.71927312 C31,8.08354586 30.9334021,7.46598224 30.8062607,6.87263679 C30.6609563,6.19452771 29.83151,6.0189459 29.3411074,6.50936407 L25.4723763,10.3782185 C25.2907457,10.5598549 25.0425172,10.6627822 24.7882344,10.6627822 L21.3130361,10.6567276 C20.7802531,10.6567276 20.3443398,10.2208004 20.3443398,9.68800038 L20.3443398,6.21269135 C20.3443398,5.95840044 20.4472638,5.71016409 20.6288943,5.52852772 L24.4976255,1.65967325 C24.9880281,1.16925507 24.8124518,0.339782362 24.1343644,0.194473274 C23.5349835,0.0673278218 22.9174395,0.000727823011 22.2817325,0.000727823011 C17.4685224,0.000727823011 13.5634651,3.90590957 13.5634651,8.71927312 L13.5634651,8.76770949 L18.7278277,13.9322367 C20.9073945,13.381273 23.3170268,13.9625094 25.0243542,15.6698912 L25.9748875,16.6204548 C28.9415202,15.2279094 31,12.2127458 31,8.71927312 Z M3.39215302,26.1563637 C3.39215302,25.3538438 4.04270324,24.7032728 4.8451976,24.7032728 C5.64769196,24.7032728 6.29824218,25.3538438 6.29824218,26.1563637 C6.29824218,26.9588837 5.64769196,27.6094546 4.8451976,27.6094546 C4.04270324,27.6094546 3.39215302,26.9588837 3.39215302,26.1563637 Z" id="Shape"></path>
            </g>
        </g>
    </g>
</svg>